<svg width="37" height="37" viewBox="0 0 37 37" fill="none" xmlns="http://www.w3.org/2000/svg">
<g clip-path="url(#clip0_62_198)">
<path d="M37 18.5C37 27.7341 30.2345 35.3878 21.3906 36.7753V23.8477H25.7013L26.5215 18.5H21.3906V15.0298C21.3906 13.5664 22.1075 12.1406 24.4055 12.1406H26.7383V7.58789C26.7383 7.58789 24.6209 7.22656 22.5967 7.22656C18.3714 7.22656 15.6094 9.78766 15.6094 14.4242V18.5H10.9121V23.8477H15.6094V36.7753C6.76551 35.3878 0 27.7341 0 18.5C0 8.28309 8.28309 0 18.5 0C28.7169 0 37 8.28309 37 18.5Z" fill="#1877F2"/>
<path d="M25.7013 23.8477L26.5215 18.5H21.3906V15.0297C21.3906 13.5667 22.1074 12.1406 24.4055 12.1406H26.7383V7.58789C26.7383 7.58789 24.6212 7.22656 22.5971 7.22656C18.3713 7.22656 15.6094 9.78766 15.6094 14.4242V18.5H10.9121V23.8477H15.6094V36.7752C16.5513 36.923 17.5166 37 18.5 37C19.4834 37 20.4487 36.923 21.3906 36.7752V23.8477H25.7013Z" fill="white"/>
</g>
<defs>
<clipPath id="clip0_62_198">
<rect width="37" height="37" fill="white"/>
</clipPath>
</defs>
</svg>
