<svg width="17" height="17" viewBox="0 0 17 17" fill="none" xmlns="http://www.w3.org/2000/svg">
<path d="M5.62294 17C5.20584 17.0004 4.80039 16.8625 4.46994 16.608L2.70894 15.271C2.30254 14.9556 2.03279 14.4961 1.95537 13.9875C1.87796 13.479 1.9988 12.9601 2.29294 12.538C2.44984 12.31 2.54988 12.0478 2.58467 11.7733C2.61947 11.4988 2.58801 11.2199 2.49294 10.96L2.44594 10.817C2.37873 10.5832 2.25785 10.3683 2.09291 10.1895C1.92798 10.0107 1.72356 9.87285 1.49594 9.787L1.35694 9.739C0.860645 9.57137 0.450303 9.21508 0.214688 8.74722C-0.0209263 8.27936 -0.0628677 7.73755 0.0979379 7.239L0.788938 5.034C0.863575 4.79042 0.986635 4.56443 1.15074 4.36956C1.31484 4.1747 1.51661 4.01499 1.74394 3.9C2.0009 3.76865 2.28535 3.7001 2.57394 3.7C2.77808 3.70004 2.98082 3.73383 3.17394 3.8C3.33975 3.85649 3.51376 3.88521 3.68894 3.885C4.04852 3.88342 4.3978 3.76477 4.68394 3.547L4.79294 3.464C4.9877 3.31155 5.14507 3.11663 5.25304 2.8941C5.36101 2.67158 5.41673 2.42733 5.41594 2.18V1.977C5.413 1.45764 5.61568 0.958222 5.97973 0.587803C6.34378 0.217385 6.83961 0.00606767 7.35894 0L9.52694 0C9.77994 0.000162874 10.0304 0.0506411 10.2637 0.148497C10.497 0.246354 10.7085 0.389634 10.8859 0.57C11.0728 0.757818 11.2202 0.981051 11.3197 1.22661C11.4191 1.47216 11.4685 1.7351 11.4649 2V2.237C11.4626 2.47136 11.5147 2.70306 11.617 2.91389C11.7194 3.12472 11.8693 3.30891 12.0549 3.452L12.1459 3.521C12.4039 3.71451 12.7174 3.81971 13.0399 3.821C13.1967 3.82115 13.3524 3.79582 13.5009 3.746L13.7889 3.646C13.9823 3.5809 14.1849 3.54714 14.3889 3.546C14.6907 3.54593 14.988 3.61829 15.2559 3.757C15.4896 3.87639 15.6969 4.0416 15.8655 4.24277C16.034 4.44395 16.1603 4.67698 16.2369 4.928L16.9059 7.071C17.0625 7.56646 17.0202 8.10341 16.7878 8.56817C16.5554 9.03293 16.1513 9.389 15.6609 9.561L15.4899 9.618C15.2435 9.70468 15.0215 9.84916 14.8425 10.0393C14.6635 10.2295 14.5326 10.4598 14.4609 10.711C14.3921 10.9461 14.3761 11.1936 14.4141 11.4356C14.4522 11.6777 14.5433 11.9083 14.6809 12.111L14.9019 12.429C15.1935 12.8553 15.3113 13.3768 15.2312 13.887C15.151 14.3972 14.8791 14.8576 14.4709 15.174L12.7219 16.5C12.3919 16.7519 11.9881 16.8882 11.5729 16.888C11.4725 16.8877 11.3722 16.8797 11.2729 16.864C11.015 16.8226 10.7682 16.7291 10.5476 16.5892C10.327 16.4492 10.1372 16.2658 9.98994 16.05L9.88994 15.904C9.75804 15.7051 9.58005 15.5411 9.37112 15.4258C9.16218 15.3106 8.92849 15.2475 8.68994 15.242H8.61594C8.37533 15.2461 8.13925 15.308 7.9276 15.4225C7.71596 15.5371 7.53498 15.7008 7.39994 15.9L7.19994 16.178C7.05108 16.3912 6.86055 16.572 6.63987 16.7095C6.41918 16.847 6.17291 16.9383 5.91594 16.978C5.81896 16.9927 5.72102 17.0001 5.62294 17ZM2.57594 5.4C2.55363 5.40012 2.53168 5.40561 2.51194 5.416C2.48746 5.42894 2.46593 5.44681 2.44871 5.4685C2.4315 5.49019 2.41898 5.51522 2.41194 5.542L1.71694 7.75C1.70406 7.78742 1.6987 7.82702 1.70119 7.86651C1.70368 7.90601 1.71395 7.94462 1.73143 7.98013C1.7489 8.01564 1.77323 8.04734 1.80301 8.0734C1.83279 8.09947 1.86743 8.11938 1.90494 8.132L2.04394 8.179C2.52255 8.35081 2.95442 8.63204 3.30512 9.00028C3.65582 9.36852 3.91567 9.81358 4.06394 10.3L4.09794 10.4C4.27854 10.908 4.33715 11.4514 4.26906 11.9862C4.20096 12.5211 4.00807 13.0324 3.70594 13.479C3.65448 13.541 3.62897 13.6204 3.63475 13.7007C3.64053 13.7811 3.67714 13.856 3.73694 13.91L5.49994 15.255C5.53781 15.284 5.58427 15.2994 5.63194 15.299H5.65994C5.69128 15.2939 5.72123 15.2824 5.7479 15.2652C5.77458 15.248 5.7974 15.2255 5.81494 15.199L6.01494 14.921C6.30111 14.5127 6.67806 14.1763 7.11618 13.9382C7.55429 13.7002 8.04164 13.5669 8.53994 13.549H8.61194C9.13822 13.5442 9.65763 13.6688 10.1244 13.9119C10.5912 14.1549 10.9911 14.509 11.2889 14.943L11.3889 15.088C11.4065 15.1145 11.4293 15.137 11.456 15.1542C11.4826 15.1714 11.5126 15.1829 11.5439 15.188C11.5552 15.1891 11.5666 15.1891 11.5779 15.188C11.6239 15.1879 11.6684 15.172 11.7039 15.143L13.4559 13.821C13.5158 13.7705 13.5548 13.6997 13.5655 13.6221C13.5762 13.5446 13.5578 13.4658 13.5139 13.401L13.2939 13.082C13.0115 12.6695 12.8243 12.1993 12.746 11.7055C12.6676 11.2117 12.7001 10.7067 12.8409 10.227C12.9897 9.71381 13.2598 9.24397 13.6284 8.85721C13.9971 8.47046 14.4535 8.17815 14.9589 8.005L15.1299 7.947C15.1986 7.91654 15.2534 7.86142 15.2834 7.79254C15.3134 7.72366 15.3164 7.64603 15.2919 7.575L14.6229 5.432C14.6131 5.39717 14.5964 5.36468 14.5737 5.3365C14.551 5.30831 14.5229 5.28501 14.4909 5.268C14.462 5.25241 14.4298 5.24416 14.3969 5.244C14.3748 5.24415 14.3529 5.24787 14.3319 5.255L14.0439 5.355C13.7215 5.46241 13.3838 5.51711 13.0439 5.517C12.3526 5.51528 11.6803 5.29047 11.1269 4.876L11.0349 4.807C10.6388 4.50416 10.3184 4.11352 10.0989 3.66583C9.87939 3.21813 9.76679 2.7256 9.76994 2.227V1.989C9.7707 1.94909 9.76348 1.90942 9.74871 1.87233C9.73394 1.83524 9.71192 1.80147 9.68394 1.773C9.66392 1.75024 9.63932 1.73197 9.61174 1.71939C9.58417 1.70681 9.55425 1.7002 9.52394 1.7H7.35994C7.29059 1.70612 7.22641 1.73918 7.18116 1.79209C7.13592 1.845 7.11322 1.91354 7.11794 1.983V2.189C7.11642 2.69691 6.99908 3.19779 6.77485 3.65353C6.55062 4.10927 6.2254 4.50787 5.82394 4.819L5.71394 4.9C5.13183 5.34173 4.42167 5.58184 3.69094 5.584C3.32796 5.58408 2.96745 5.52428 2.62394 5.407C2.60842 5.40211 2.59221 5.39975 2.57594 5.4ZM8.49994 11.475C7.91158 11.4748 7.33649 11.3002 6.84739 10.9731C6.35828 10.6461 5.97713 10.1814 5.75211 9.63779C5.52709 9.09416 5.46832 8.49602 5.58322 7.91899C5.69813 7.34197 5.98155 6.81197 6.39765 6.396C6.81375 5.98004 7.34385 5.6968 7.92091 5.58209C8.49798 5.46738 9.0961 5.52635 9.63965 5.75155C10.1832 5.97675 10.6478 6.35807 10.9746 6.84728C11.3015 7.3365 11.4759 7.91164 11.4759 8.5C11.4751 9.28895 11.1613 10.0453 10.6033 10.6031C10.0454 11.1609 9.28889 11.4745 8.49994 11.475ZM8.49994 7.225C8.24781 7.2252 8.0014 7.30014 7.79186 7.44036C7.58232 7.58058 7.41905 7.77978 7.3227 8.01277C7.22636 8.24576 7.20125 8.50209 7.25056 8.74935C7.29987 8.99661 7.42138 9.2237 7.59973 9.40191C7.77808 9.58013 8.00527 9.70146 8.25257 9.75057C8.49986 9.79969 8.75617 9.77438 8.98909 9.67785C9.22201 9.58132 9.42108 9.4179 9.56113 9.20825C9.70119 8.9986 9.77594 8.75213 9.77594 8.5C9.77541 8.16184 9.64077 7.83769 9.40156 7.59867C9.16235 7.35965 8.8381 7.22526 8.49994 7.225Z" fill="#161615"/>
</svg>
