<svg width="37" height="37" viewBox="0 0 37 37" fill="none" xmlns="http://www.w3.org/2000/svg">
<g clip-path="url(#clip0_62_203)">
<path d="M18.5 37C28.7173 37 37 28.7173 37 18.5C37 8.28273 28.7173 0 18.5 0C8.28273 0 0 8.28273 0 18.5C0 28.7173 8.28273 37 18.5 37Z" fill="url(#paint0_linear_62_203)"/>
<path fill-rule="evenodd" clip-rule="evenodd" d="M8.37409 18.3047C13.7672 15.955 17.3635 14.4059 19.1628 13.6576C24.3005 11.5207 25.3681 11.1494 26.0638 11.1372C26.2169 11.1345 26.5591 11.1724 26.7807 11.3523C27.1095 11.6191 27.1114 12.1982 27.0749 12.5815C26.7965 15.5068 25.5918 22.6057 24.9789 25.8821C24.7196 27.2684 24.2089 27.7333 23.7146 27.7788C22.6403 27.8776 21.8245 27.0688 20.784 26.3867C19.1558 25.3194 18.2359 24.6549 16.6554 23.6135C14.8289 22.4098 16.0129 21.7483 17.0538 20.6671C17.3263 20.3842 22.0598 16.0787 22.1514 15.6881C22.1629 15.6392 22.1735 15.4571 22.0653 15.361C21.9571 15.2649 21.7975 15.2977 21.6823 15.3239C21.519 15.3609 18.9179 17.0802 13.8789 20.4816C13.1406 20.9886 12.4718 21.2356 11.8727 21.2227C11.2121 21.2085 9.94153 20.8492 8.99695 20.5422C7.83838 20.1656 6.91758 19.9664 6.99779 19.3269C7.03956 18.9937 7.4983 18.653 8.37409 18.3047Z" fill="white"/>
</g>
<defs>
<linearGradient id="paint0_linear_62_203" x1="18.5" y1="0" x2="18.5" y2="36.7109" gradientUnits="userSpaceOnUse">
<stop stop-color="#2AABEE"/>
<stop offset="1" stop-color="#229ED9"/>
</linearGradient>
<clipPath id="clip0_62_203">
<rect width="37" height="37" fill="white"/>
</clipPath>
</defs>
</svg>
