<svg width="17" height="17" viewBox="0 0 17 17" fill="none" xmlns="http://www.w3.org/2000/svg">
<g clip-path="url(#clip0_249_84)">
<path d="M8.5 0.8C4.24431 0.8 0.8 4.24391 0.8 8.5C0.8 12.7556 4.24391 16.2 8.5 16.2C12.7557 16.2 16.2 12.7561 16.2 8.5C16.2 4.24437 12.7561 0.8 8.5 0.8ZM8.5 14.7535C5.052 14.7535 2.24651 11.948 2.24651 8.5C2.24651 5.05197 5.052 2.24651 8.5 2.24651C11.948 2.24651 14.7535 5.05197 14.7535 8.5C14.7535 11.948 11.948 14.7535 8.5 14.7535Z" fill="black" stroke="black" stroke-width="0.4"/>
<path d="M8.50016 7.25189C8.0559 7.25189 7.73999 7.43951 7.73999 7.71592V11.4772C7.73999 11.7142 8.0559 11.9511 8.50016 11.9511C8.92467 11.9511 9.27017 11.7142 9.27017 11.4772V7.71587C9.27017 7.43948 8.92467 7.25189 8.50016 7.25189Z" fill="black"/>
<path d="M8.50018 4.93188C8.04605 4.93188 7.69067 5.25767 7.69067 5.63281C7.69067 6.00799 8.04607 6.34364 8.50018 6.34364C8.94443 6.34364 9.29986 6.00799 9.29986 5.63281C9.29986 5.25767 8.9444 4.93188 8.50018 4.93188Z" fill="black"/>
</g>
<defs>
<clipPath id="clip0_249_84">
<rect width="17" height="17" fill="white"/>
</clipPath>
</defs>
</svg>
