<svg width="12" height="20" viewBox="0 0 12 20" fill="none" xmlns="http://www.w3.org/2000/svg">
<path d="M4.11201 10.0042L11.4443 2.52195C11.6462 2.31642 11.7573 2.04163 11.7573 1.74862C11.7573 1.45545 11.6462 1.18081 11.4443 0.974959L10.8018 0.319675C10.6002 0.113496 10.3308 0 10.0436 0C9.75649 0 9.48735 0.113496 9.28561 0.319675L0.555324 9.22797C0.352791 9.43447 0.241883 9.71041 0.24268 10.0037C0.241883 10.2984 0.352631 10.574 0.555324 10.7807L9.27748 19.6803C9.47922 19.8865 9.74836 20 10.0357 20C10.3228 20 10.592 19.8865 10.7939 19.6803L11.4362 19.025C11.8542 18.5985 11.8542 17.9042 11.4362 17.4779L4.11201 10.0042Z" fill="#1E1E1E"/>
</svg>
