<svg width="32" height="32" viewBox="0 0 32 32" fill="none" xmlns="http://www.w3.org/2000/svg">
<path d="M16 17.82C14.6122 17.8216 13.2669 17.3422 12.1929 16.4634C11.119 15.5845 10.3829 14.3606 10.11 13C10.0882 12.8566 10.0979 12.7103 10.1383 12.5711C10.1787 12.4319 10.2489 12.3031 10.344 12.1937C10.4391 12.0843 10.5569 11.9969 10.6892 11.9376C10.8214 11.8782 10.965 11.8483 11.11 11.85C11.3482 11.8465 11.5798 11.9282 11.7632 12.0804C11.9465 12.2325 12.0695 12.4452 12.11 12.68C12.2983 13.5789 12.7902 14.3856 13.5031 14.9646C14.2161 15.5437 15.1065 15.8597 16.025 15.8597C16.9434 15.8597 17.8339 15.5437 18.5468 14.9646C19.2597 14.3856 19.7516 13.5789 19.94 12.68C19.9804 12.4452 20.1034 12.2325 20.2867 12.0804C20.4701 11.9282 20.7017 11.8465 20.94 11.85C21.0849 11.8483 21.2285 11.8782 21.3607 11.9376C21.493 11.9969 21.6108 12.0843 21.7059 12.1937C21.801 12.3031 21.8712 12.4319 21.9116 12.5711C21.952 12.7103 21.9617 12.8566 21.94 13C21.6654 14.369 20.922 15.5995 19.8377 16.4793C18.7534 17.3591 17.3962 17.8333 16 17.82Z" fill="#7A3787"/>
<path d="M24.8999 31H7.09994C6.69303 31.0005 6.29027 30.9182 5.91616 30.7582C5.54205 30.5981 5.20441 30.3636 4.92378 30.069C4.64315 29.7743 4.4254 29.4256 4.28377 29.0442C4.14214 28.6627 4.0796 28.2564 4.09994 27.85L4.90994 10.61C4.94347 9.83709 5.27428 9.10701 5.83329 8.57222C6.39231 8.03743 7.13631 7.73926 7.90994 7.73999H24.0899C24.8636 7.73926 25.6076 8.03743 26.1666 8.57222C26.7256 9.10701 27.0564 9.83709 27.0899 10.61L27.8999 27.85C27.9203 28.2564 27.8577 28.6627 27.7161 29.0442C27.5745 29.4256 27.3567 29.7743 27.0761 30.069C26.7955 30.3636 26.4578 30.5981 26.0837 30.7582C25.7096 30.9182 25.3069 31.0005 24.8999 31ZM7.90994 9.74999C7.64473 9.74999 7.39037 9.85535 7.20284 10.0429C7.0153 10.2304 6.90994 10.4848 6.90994 10.75L6.09994 27.95C6.09316 28.0855 6.11401 28.2209 6.16122 28.348C6.20843 28.4752 6.28101 28.5914 6.37456 28.6896C6.4681 28.7879 6.58065 28.866 6.70535 28.9194C6.83005 28.9727 6.96431 29.0002 7.09994 29H24.8999C25.0356 29.0002 25.1698 28.9727 25.2945 28.9194C25.4192 28.866 25.5318 28.7879 25.6253 28.6896C25.7189 28.5914 25.7915 28.4752 25.8387 28.348C25.8859 28.2209 25.9067 28.0855 25.8999 27.95L25.0899 10.71C25.0899 10.4448 24.9846 10.1904 24.7971 10.0029C24.6095 9.81535 24.3552 9.70999 24.0899 9.70999L7.90994 9.74999Z" fill="#7A3787"/>
<path d="M22 8.75H20V7C20 5.93913 19.5786 4.92172 18.8284 4.17157C18.0783 3.42143 17.0609 3 16 3C14.9391 3 13.9217 3.42143 13.1716 4.17157C12.4214 4.92172 12 5.93913 12 7V8.75H10V7C10 5.4087 10.6321 3.88258 11.7574 2.75736C12.8826 1.63214 14.4087 1 16 1C17.5913 1 19.1174 1.63214 20.2426 2.75736C21.3679 3.88258 22 5.4087 22 7V8.75Z" fill="#7A3787"/>
</svg>
