<svg width="33" height="20" viewBox="0 0 33 20" fill="none" xmlns="http://www.w3.org/2000/svg">
<path d="M33.0002 2.0048V18.5754C33.0002 19.1968 32.4918 19.7052 31.8704 19.7052H1.44083C0.819444 19.7052 0.311035 19.1968 0.311035 18.5754V2.0048C0.311035 1.38341 0.819444 0.875 1.44083 0.875H31.8704C32.4918 0.875 33.0002 1.38341 33.0002 2.0048Z" fill="#368B4C"/>
<path d="M33.0001 2.0048V18.1234H3.02244C2.40105 18.1234 1.89264 17.615 1.89264 16.9937V0.875H31.8703C32.4917 0.875 33.0001 1.38341 33.0001 2.0048Z" fill="#3FA45A"/>
<path d="M29.6573 6.52088C28.6917 6.18669 27.9286 5.35019 27.6245 4.29169C27.4499 3.68705 26.9401 3.27466 26.3622 3.27466H19.0277H17.2243H6.94869C6.37085 3.27466 5.86101 3.68705 5.68636 4.29169C5.38228 5.35012 4.61917 6.18662 3.65352 6.52088C3.10185 6.71134 2.72568 7.27027 2.72568 7.9046V10.2828V10.2973V12.6755C2.72568 13.3099 3.10192 13.8688 3.65352 14.0593C4.61917 14.3935 5.38221 15.23 5.68636 16.2885C5.86094 16.8931 6.37078 17.3055 6.94869 17.3055H17.2243H19.0277H26.3622C26.9401 17.3055 27.4499 16.8931 27.6245 16.2885C27.9287 15.23 28.6917 14.3935 29.6574 14.0593C30.2091 13.8688 30.5852 13.3099 30.5852 12.6755V10.2973V10.2828V7.9046C30.5852 7.27027 30.209 6.71134 29.6573 6.52088Z" fill="#95D6A6"/>
<path d="M16.6554 14.6443C19.0602 14.6443 21.0098 12.6948 21.0098 10.2899C21.0098 7.88507 19.0602 5.93555 16.6554 5.93555C14.2505 5.93555 12.301 7.88507 12.301 10.2899C12.301 12.6948 14.2505 14.6443 16.6554 14.6443Z" fill="#368B4C"/>
<path d="M16.6558 13.8333C16.9678 13.8333 17.2207 13.5804 17.2207 13.2684V12.9009C17.8433 12.6725 18.2887 12.0739 18.2887 11.3731C18.2887 10.4803 17.5657 9.75322 16.6745 9.74647L16.6632 9.74604C16.6597 9.74589 16.6561 9.74582 16.6526 9.74575C16.3884 9.74029 16.1652 9.50153 16.1652 9.22469C16.1652 8.95417 16.3852 8.73123 16.6505 8.72792L16.6538 8.72785C16.9253 8.73008 17.1463 8.95302 17.1463 9.22469C17.1463 9.53668 17.3992 9.78959 17.7112 9.78959C18.0232 9.78959 18.2761 9.53668 18.2761 9.22469C18.2761 8.53265 17.8372 7.93901 17.2206 7.70528V7.31173C17.2206 6.99974 16.9677 6.74683 16.6557 6.74683C16.3437 6.74683 16.0908 6.99974 16.0908 7.31173V7.70421C15.4759 7.93743 15.0352 8.53244 15.0352 9.22455C15.0352 10.1143 15.747 10.8534 16.6228 10.8751L16.6395 10.8758C16.647 10.876 16.6545 10.8762 16.6619 10.8762C16.9358 10.8762 17.1588 11.0991 17.1588 11.373C17.1588 11.647 16.9359 11.8699 16.6602 11.8699H16.6494C16.3754 11.8699 16.1525 11.647 16.1525 11.373C16.1525 11.061 15.8996 10.8081 15.5876 10.8081C15.2756 10.8081 15.0227 11.061 15.0227 11.373C15.0227 12.0734 15.4678 12.6719 16.0907 12.9005V13.2682C16.0909 13.5804 16.3438 13.8333 16.6558 13.8333Z" fill="#2C733F"/>
</svg>
