<svg width="69" height="68" viewBox="0 0 69 68" fill="none" xmlns="http://www.w3.org/2000/svg">
<g clip-path="url(#clip0_95_1530)">
<path d="M39.551 55.9988C36.7402 56.0142 34.0504 57.1352 32.0715 59.1159C30.0927 61.0967 28.9864 63.7754 28.9954 66.5644V68.1275H50.1066V66.5644C50.1156 63.7754 49.0093 61.0967 47.0305 59.1159C45.0516 57.1352 42.3618 56.0142 39.551 55.9988Z" fill="#F3F5E6"/>
<path d="M39.551 55.9988C36.7402 56.0142 34.0504 57.1352 32.0715 59.1159C30.0927 61.0967 28.9864 63.7754 28.9954 66.5644V68.1275H34.1995V63.1029C34.2003 62.3164 34.4266 61.5463 34.852 60.8827C35.6104 59.6908 36.603 58.6627 37.7706 57.8597C38.9382 57.0567 40.2568 56.4952 41.6478 56.2088C40.9579 56.069 40.2556 55.9987 39.5515 55.9988H39.551Z" fill="#D7D9CC"/>
<path d="M39.5506 64.7517C40.1243 64.7517 40.5894 64.2903 40.5894 63.721C40.5894 63.1518 40.1243 62.6903 39.5506 62.6903C38.9769 62.6903 38.5118 63.1518 38.5118 63.721C38.5118 64.2903 38.9769 64.7517 39.5506 64.7517Z" fill="#D7D9CC"/>
<path d="M27.3214 46.4265C31.3776 42.4017 31.3776 35.8762 27.3214 31.8513C23.2652 27.8265 16.6888 27.8265 12.6325 31.8513C8.57631 35.8762 8.57631 42.4017 12.6325 46.4265C16.6888 50.4513 23.2652 50.4513 27.3214 46.4265Z" fill="#CB5935"/>
<path d="M20.5507 42.8794C23.3121 42.8794 25.5506 40.6582 25.5506 37.9182C25.5506 35.1782 23.3121 32.957 20.5507 32.957C17.7893 32.957 15.5508 35.1782 15.5508 37.9182C15.5508 40.6582 17.7893 42.8794 20.5507 42.8794Z" fill="#FFBF9D"/>
<path d="M58.5509 42.8794C61.3123 42.8794 63.5509 40.6582 63.5509 37.9182C63.5509 35.1782 61.3123 32.957 58.5509 32.957C55.7896 32.957 53.551 35.1782 53.551 37.9182C53.551 40.6582 55.7896 42.8794 58.5509 42.8794Z" fill="#FFBF9D"/>
<path d="M45.2551 57.0682C50.1635 55.6537 54.3493 52.4457 56.9687 48.0906C59.5882 43.7355 60.4467 38.5571 59.3713 33.5989C58.2959 28.6407 55.3664 24.2712 51.1733 21.371C46.9802 18.4708 41.835 17.2553 36.7746 17.9697C31.7143 18.684 27.1149 21.275 23.9032 25.2205C20.6915 29.166 19.1064 34.1727 19.4672 39.2318C19.8279 44.2909 22.1078 49.0262 25.8474 52.4837C29.587 55.9411 34.5083 57.8636 39.6196 57.8638C41.5266 57.8651 43.4241 57.5972 45.2551 57.0682Z" fill="#FFD4BD"/>
<path d="M26.1824 37.9192C26.1826 33.2023 27.8672 28.638 30.9372 25.0365C34.0072 21.4351 38.2639 19.0295 42.9517 18.2467C40.0709 17.7675 37.1194 17.917 34.3027 18.6848C31.4861 19.4526 28.8719 20.8203 26.6422 22.6927C24.4125 24.5651 22.6208 26.8972 21.3919 29.5266C20.163 32.1561 19.5264 35.0196 19.5264 37.9181C19.5264 40.8165 20.163 43.6801 21.3919 46.3095C22.6208 48.9389 24.4125 51.271 26.6422 53.1434C28.8719 55.0158 31.4861 56.3835 34.3027 57.1513C37.1194 57.9192 40.0709 58.0686 42.9517 57.5894C38.2643 56.8067 34.0079 54.4014 30.9379 50.8005C27.868 47.1995 26.1832 42.6358 26.1824 37.9192Z" fill="#FFBF9D"/>
<path d="M47.925 32.9562C49.4283 34.561 51.2562 35.8326 53.2891 36.6879C55.322 37.5432 57.514 37.9628 59.7216 37.9193C59.7216 32.6293 57.6038 27.556 53.834 23.8154C50.0642 20.0748 44.9513 17.9734 39.6201 17.9734C34.2888 17.9734 29.1759 20.0748 25.4062 23.8154C21.6364 27.556 19.5186 32.6293 19.5186 37.9193V37.923C29.2791 39.9323 39.4445 38.1549 47.925 32.9562Z" fill="#DD6642"/>
<path d="M42.9494 18.2472C40.0683 17.768 37.1167 17.9175 34.2998 18.6853C31.4829 19.4532 28.8684 20.8209 26.6384 22.6933C24.4084 24.5657 22.6164 26.8978 21.3872 29.5273C20.1579 32.1568 19.5208 35.0205 19.5204 37.9192V37.9229C21.72 38.3754 23.955 38.6383 26.2002 38.7086C26.1899 38.4469 26.1838 38.1837 26.1838 37.9196C26.184 33.2033 27.8681 28.6394 30.9373 25.0381C34.0065 21.4367 38.2623 19.0308 42.9494 18.2472Z" fill="#CB5935"/>
<path d="M54.8808 -0.178955H24.2213C23.1194 -0.178832 22.0626 0.255579 21.2834 1.02874C20.5042 1.80189 20.0664 2.85048 20.0663 3.94389V32.9571C26.2132 30.2998 32.8461 28.9283 39.551 28.9283C46.256 28.9283 52.8889 30.2998 59.0358 32.9571V3.94436C59.0359 3.4029 58.9284 2.86673 58.7196 2.36647C58.5109 1.86621 58.2048 1.41166 57.819 1.02876C57.4331 0.645873 56.9751 0.342144 56.4709 0.134923C55.9668 -0.072299 55.4265 -0.178955 54.8808 -0.178955V-0.178955Z" fill="#F3F5E6"/>
<path d="M31.2124 -0.178955H24.2185C23.1165 -0.178955 22.0597 0.255415 21.2805 1.0286C20.5012 1.80178 20.0635 2.85045 20.0635 3.94389V32.9571C22.4916 31.9075 25.0019 31.0559 27.5695 30.4108V8.54833C27.5694 5.27501 28.8798 2.13572 31.2124 -0.178955V-0.178955Z" fill="#D7D9CC"/>
<path d="M27.5695 6.48682C27.0185 6.48682 26.49 6.704 26.1004 7.09059C25.7108 7.47719 25.4919 8.00152 25.4919 8.54824V24.1188C25.4919 24.6656 25.7108 25.1899 26.1004 25.5765C26.49 25.9631 27.0185 26.1803 27.5695 26.1803C28.1204 26.1803 28.6489 25.9631 29.0385 25.5765C29.4281 25.1899 29.647 24.6656 29.647 24.1188V8.54824C29.647 8.00152 29.4281 7.47719 29.0385 7.09059C28.6489 6.704 28.1204 6.48682 27.5695 6.48682Z" fill="#D7D9CC"/>
<path d="M39.5505 6.48682C38.9995 6.48682 38.4711 6.704 38.0815 7.09059C37.6919 7.47719 37.473 8.00152 37.473 8.54824V24.1188C37.473 24.3896 37.5268 24.6576 37.6312 24.9077C37.7356 25.1578 37.8886 25.3851 38.0815 25.5765C38.2744 25.7679 38.5035 25.9198 38.7555 26.0234C39.0076 26.1269 39.2777 26.1803 39.5505 26.1803C39.8234 26.1803 40.0935 26.1269 40.3456 26.0234C40.5976 25.9198 40.8266 25.7679 41.0196 25.5765C41.2125 25.3851 41.3655 25.1578 41.4699 24.9077C41.5743 24.6576 41.628 24.3896 41.628 24.1188V8.54824C41.628 8.00152 41.4092 7.47719 41.0196 7.09059C40.6299 6.704 40.1015 6.48682 39.5505 6.48682Z" fill="#D7D9CC"/>
<path d="M51.5317 6.48682C50.9807 6.48682 50.4523 6.704 50.0627 7.09059C49.6731 7.47719 49.4542 8.00152 49.4542 8.54824V24.1188C49.4542 24.6656 49.6731 25.1899 50.0627 25.5765C50.4523 25.9631 50.9807 26.1803 51.5317 26.1803C52.0827 26.1803 52.6111 25.9631 53.0008 25.5765C53.3904 25.1899 53.6092 24.6656 53.6092 24.1188V8.54824C53.6092 8.00152 53.3904 7.47719 53.0008 7.09059C52.6111 6.704 52.0827 6.48682 51.5317 6.48682Z" fill="#D7D9CC"/>
<path d="M30.6862 40.1738C30.5498 40.1738 30.4147 40.2005 30.2887 40.2523C30.1627 40.3041 30.0482 40.38 29.9517 40.4757C29.8552 40.5714 29.7787 40.6851 29.7265 40.8101C29.6743 40.9352 29.6475 41.0692 29.6475 41.2045V42.579C29.6475 42.8523 29.7569 43.1145 29.9517 43.3078C30.1465 43.5011 30.4107 43.6097 30.6862 43.6097C30.9617 43.6097 31.2259 43.5011 31.4207 43.3078C31.6155 43.1145 31.725 42.8523 31.725 42.579V41.2045C31.725 40.9312 31.6155 40.669 31.4207 40.4757C31.2259 40.2824 30.9617 40.1738 30.6862 40.1738Z" fill="#313D40"/>
<path d="M48.415 40.1738C48.2785 40.1738 48.1434 40.2004 48.0173 40.2522C47.8912 40.3039 47.7766 40.3798 47.6801 40.4756C47.5836 40.5713 47.5071 40.6849 47.4548 40.81C47.4026 40.9351 47.3757 41.0691 47.3757 41.2045V42.579C47.3757 42.8523 47.4852 43.1145 47.68 43.3078C47.8748 43.5011 48.139 43.6097 48.4145 43.6097C48.69 43.6097 48.9542 43.5011 49.149 43.3078C49.3438 43.1145 49.4532 42.8523 49.4532 42.579V41.2045C49.4532 40.9313 49.3439 40.6692 49.1492 40.4759C48.9545 40.2826 48.6904 40.174 48.415 40.1738Z" fill="#313D40"/>
<path d="M42.2838 44.1231C42.1608 44.0646 42.0273 44.0308 41.8911 44.0236C41.7549 44.0164 41.6185 44.0358 41.4899 44.0809C41.3613 44.126 41.2428 44.1958 41.1414 44.2863C41.04 44.3768 40.9575 44.4862 40.8987 44.6084C40.7807 44.845 40.5985 45.0443 40.3725 45.1836C40.1464 45.3228 39.8857 45.3966 39.6196 45.3966C39.3535 45.3966 39.0928 45.3228 38.8668 45.1836C38.6407 45.0443 38.4585 44.845 38.3405 44.6084C38.2823 44.4852 38.2002 44.3747 38.0987 44.2832C37.9973 44.1917 37.8786 44.121 37.7496 44.0753C37.6205 44.0295 37.4835 44.0095 37.3466 44.0165C37.2097 44.0235 37.0756 44.0573 36.9519 44.1159C36.8282 44.1746 36.7175 44.257 36.6261 44.3583C36.5346 44.4597 36.4643 44.578 36.4192 44.7064C36.374 44.8348 36.3549 44.9708 36.363 45.1066C36.3711 45.2424 36.4062 45.3753 36.4663 45.4975C36.7532 46.0852 37.2012 46.5809 37.7589 46.9277C38.3166 47.2744 38.9614 47.4584 39.6196 47.4584C40.2778 47.4584 40.9226 47.2744 41.4803 46.9277C42.038 46.5809 42.486 46.0852 42.773 45.4975C42.8918 45.2509 42.907 44.9676 42.8153 44.7098C42.7235 44.452 42.5324 44.241 42.2838 44.1231Z" fill="#313D40"/>
</g>
<defs>
<clipPath id="clip0_95_1530">
<rect width="69" height="68" fill="white"/>
</clipPath>
</defs>
</svg>
