<svg width="61" height="61" viewBox="0 0 61 61" fill="none" xmlns="http://www.w3.org/2000/svg">
<g clip-path="url(#clip0_95_1470)">
<path d="M54.4209 54.7194L38.5441 51.5441H21.3087L5.43201 54.7194C2.61947 55.2819 0.0886159 56.8012 -1.73007 59.0191C-3.54876 61.2371 -4.54296 64.0165 -4.54358 66.8847V91.3971C-4.54358 93.6255 -3.65836 95.7626 -2.08265 97.3383C-0.50695 98.914 1.63016 99.7992 3.85854 99.7992H55.9935C58.2219 99.7992 60.359 98.914 61.9347 97.3383C63.5104 95.7626 64.3956 93.6255 64.3956 91.3971V66.8847C64.3955 64.0164 63.4017 61.2368 61.5833 59.0186C59.7649 56.8004 57.2342 55.2806 54.4217 54.7177L54.4209 54.7194Z" fill="#F3F5E6"/>
<path d="M64.3948 66.8857V91.3976C64.3948 93.626 63.5096 95.7631 61.9339 97.3388C60.3581 98.9145 58.221 99.7998 55.9927 99.7998H45.0043L33.7732 94.2772L50.872 59.5126C51.7701 57.685 53.0404 56.0655 54.6014 54.7579C57.3745 55.3552 59.8591 56.8849 61.6412 59.092C63.4233 61.299 64.3951 64.0502 64.3948 66.8869V66.8857Z" fill="#EAEAE8"/>
<path d="M14.4144 8.45679H45.4371V29.1383H14.4144V8.45679Z" fill="#F3F5E6"/>
<path d="M45.4367 8.45679V18.9287C43.6103 19.6652 41.5812 19.7269 39.7134 19.1027C37.8457 18.4785 36.2614 17.2093 35.2447 15.5228C33.7552 16.7751 31.8716 17.4617 29.9256 17.4617C27.9796 17.4617 26.096 16.7751 24.6064 15.5228C23.5898 17.2093 22.0055 18.4785 20.1377 19.1027C18.2699 19.7269 16.2408 19.6652 14.4144 18.9287V8.45679H45.4367Z" fill="#EAEAE8"/>
<path d="M21.3087 22.245C20.8516 22.245 20.4132 22.0634 20.09 21.7402C19.7668 21.417 19.5852 20.9786 19.5852 20.5215V15.3511C19.5852 14.8941 19.7668 14.4557 20.09 14.1325C20.4132 13.8093 20.8516 13.6277 21.3087 13.6277C21.7658 13.6277 22.2041 13.8093 22.5273 14.1325C22.8505 14.4557 23.0321 14.8941 23.0321 15.3511V20.5215C23.0321 20.7478 22.9875 20.972 22.9009 21.1811C22.8143 21.3902 22.6874 21.5802 22.5273 21.7402C22.3673 21.9002 22.1773 22.0272 21.9682 22.1138C21.7591 22.2004 21.535 22.245 21.3087 22.245Z" fill="#CBCBCB"/>
<path d="M29.9256 22.2448C29.4685 22.2448 29.0301 22.0632 28.7069 21.74C28.3837 21.4168 28.2021 20.9784 28.2021 20.5213V13.6275C28.2021 13.1704 28.3837 12.7321 28.7069 12.4088C29.0301 12.0856 29.4685 11.9041 29.9256 11.9041C30.3827 11.9041 30.8211 12.0856 31.1443 12.4088C31.4675 12.7321 31.6491 13.1704 31.6491 13.6275V20.5213C31.6491 20.9784 31.4675 21.4168 31.1443 21.74C30.8211 22.0632 30.3827 22.2448 29.9256 22.2448Z" fill="#CBCBCB"/>
<path d="M38.5433 22.245C38.0862 22.245 37.6478 22.0634 37.3246 21.7402C37.0014 21.417 36.8198 20.9786 36.8198 20.5215V15.3511C36.8198 14.8941 37.0014 14.4557 37.3246 14.1325C37.6478 13.8093 38.0862 13.6277 38.5433 13.6277C39.0004 13.6277 39.4387 13.8093 39.762 14.1325C40.0852 14.4557 40.2667 14.8941 40.2667 15.3511V20.5215C40.2667 20.7478 40.2222 20.972 40.1356 21.1811C40.0489 21.3902 39.922 21.5802 39.762 21.7402C39.6019 21.9002 39.4119 22.0272 39.2028 22.1138C38.9937 22.2004 38.7696 22.245 38.5433 22.245Z" fill="#CBCBCB"/>
<path d="M17.8618 44.6498H14.4149C13.0436 44.6498 11.7285 44.1051 10.7589 43.1355C9.78924 42.1658 9.24451 40.8507 9.24451 39.4795C9.24451 38.1082 9.78924 36.7931 10.7589 35.8235C11.7285 34.8538 13.0436 34.3091 14.4149 34.3091H17.8618V44.6498Z" fill="#F6BB92"/>
<path d="M41.9902 34.3091H45.4372C46.1161 34.3091 46.7885 34.4428 47.4158 34.7027C48.0431 34.9625 48.613 35.3433 49.0932 35.8235C49.5733 36.3036 49.9541 36.8735 50.214 37.5008C50.4738 38.1281 50.6075 38.8005 50.6075 39.4795C50.6075 40.1584 50.4738 40.8308 50.214 41.4581C49.9541 42.0854 49.5733 42.6554 49.0932 43.1355C48.613 43.6156 48.0431 43.9964 47.4158 44.2563C46.7885 44.5161 46.1161 44.6498 45.4372 44.6498H41.9902V34.3091Z" fill="#F6BB92"/>
<path d="M26.4791 60.161L24.3374 62.3027C22.3982 64.2419 21.3088 66.8719 21.3087 69.6143V73.9487L26.045 70.1596C27.256 69.1908 28.2336 67.962 28.9054 66.5642C29.5772 65.1664 29.926 63.6354 29.926 62.0846V60.1627L26.4791 60.161Z" fill="#D7D9CC"/>
<path d="M33.3729 60.161L35.5146 62.3027C37.4538 64.2419 38.5432 66.8719 38.5433 69.6143V73.9487L33.807 70.16C32.596 69.1912 31.6184 67.9624 30.9466 66.5646C30.2748 65.1669 29.926 63.6359 29.926 62.085V60.1631L33.3729 60.161Z" fill="#D7D9CC"/>
<path d="M29.9259 63.6079C31.8296 63.6079 33.3728 62.0647 33.3728 60.161C33.3728 58.2573 31.8296 56.7141 29.9259 56.7141C28.0222 56.7141 26.479 58.2573 26.479 60.161C26.479 62.0647 28.0222 63.6079 29.9259 63.6079Z" fill="#D7D9CC"/>
<path d="M16.1395 29.1387H43.7149V41.2029C43.7149 44.8596 42.2622 48.3666 39.6766 50.9522C37.0909 53.5379 33.5839 54.9906 29.9272 54.9906C26.2705 54.9906 22.7635 53.5379 20.1778 50.9522C17.5922 48.3666 16.1395 44.8596 16.1395 41.2029V29.1387Z" fill="#FDC9A6"/>
<path d="M23.4629 39.4791C24.6527 39.4791 25.6172 38.5146 25.6172 37.3249C25.6172 36.1351 24.6527 35.1707 23.4629 35.1707C22.2732 35.1707 21.3087 36.1351 21.3087 37.3249C21.3087 38.5146 22.2732 39.4791 23.4629 39.4791Z" fill="#683B0D"/>
<path d="M36.3886 39.4791C37.5783 39.4791 38.5428 38.5146 38.5428 37.3249C38.5428 36.1351 37.5783 35.1707 36.3886 35.1707C35.1989 35.1707 34.2344 36.1351 34.2344 37.3249C34.2344 38.5146 35.1989 39.4791 36.3886 39.4791Z" fill="#683B0D"/>
<path d="M29.9259 48.0917C28.4615 48.0932 27.0168 47.7539 25.7061 47.1007C25.2972 46.8963 24.9864 46.5378 24.8418 46.1041C24.6973 45.6705 24.731 45.1972 24.9354 44.7883C25.1399 44.3795 25.4983 44.0686 25.932 43.9241C26.3656 43.7796 26.8389 43.8132 27.2478 44.0177C28.0793 44.431 28.9953 44.646 29.9238 44.646C30.8524 44.646 31.7684 44.431 32.5999 44.0177C32.8023 43.9165 33.0227 43.8561 33.2485 43.84C33.4742 43.824 33.701 43.8525 33.9157 43.9241C34.1304 43.9957 34.3289 44.1088 34.4999 44.2571C34.6709 44.4054 34.811 44.5859 34.9123 44.7883C35.0135 44.9908 35.0739 45.2112 35.0899 45.4369C35.106 45.6627 35.0774 45.8894 35.0058 46.1041C34.9343 46.3188 34.8211 46.5174 34.6728 46.6884C34.5246 46.8594 34.344 46.9995 34.1416 47.1007C32.8316 47.7536 31.3876 48.0929 29.9238 48.0917H29.9259Z" fill="#683B0D"/>
<path d="M45.4371 8.45728V18.9292C43.6106 19.6657 41.5816 19.7274 39.7138 19.1032C37.846 18.479 36.2617 17.2098 35.245 15.5232C33.7555 16.7756 31.8719 17.4622 29.9259 17.4622C27.9799 17.4622 26.0963 16.7756 24.6068 15.5232C23.5901 17.2098 22.0058 18.479 20.138 19.1032C18.2703 19.7274 16.2412 19.6657 14.4148 18.9292V8.45728H45.4371Z" fill="#CBCBCB"/>
<path d="M42.3348 1.90767C40.3881 1.9051 38.5033 2.59206 37.0149 3.84672C36.2793 2.62381 35.24 1.61196 33.9978 0.909506C32.7556 0.207054 31.3528 -0.162109 29.9257 -0.162109C28.4986 -0.162109 27.0958 0.207054 25.8536 0.909506C24.6114 1.61196 23.5721 2.62381 22.8365 3.84672C21.5412 2.75896 19.9435 2.09442 18.2588 1.94266C16.5741 1.79091 14.8834 2.15922 13.4145 2.99798C11.9456 3.83674 10.7692 5.10562 10.0436 6.63362C9.31812 8.16163 9.07843 9.87531 9.35689 11.5437C9.63534 13.2122 10.4185 14.7551 11.601 15.9647C12.7834 17.1743 14.3082 17.9923 15.9698 18.3086C17.6315 18.6249 19.3502 18.4242 20.8943 17.7336C22.4384 17.0429 23.7336 15.8956 24.6055 14.4461C26.0953 15.6985 27.9792 16.3852 29.9255 16.3852C31.8718 16.3852 33.7557 15.6985 35.2454 14.4461C35.9909 15.6848 37.048 16.7065 38.3114 17.4093C39.5747 18.1122 41.0002 18.4718 42.4458 18.4521C43.8913 18.4325 45.3065 18.0343 46.5503 17.2974C47.7941 16.5604 48.823 15.5104 49.5346 14.2519C50.2461 12.9935 50.6155 11.5705 50.6058 10.1248C50.5961 8.67912 50.2077 7.26122 49.4793 6.0124C48.751 4.76358 47.708 3.72744 46.4545 3.00724C45.2009 2.28704 43.7805 1.90793 42.3348 1.90767Z" fill="#F3F5E6"/>
</g>
<defs>
<clipPath id="clip0_95_1470">
<rect width="61" height="61" fill="white"/>
</clipPath>
</defs>
</svg>
