<svg width="32" height="32" viewBox="0 0 32 32" fill="none" xmlns="http://www.w3.org/2000/svg">
<path d="M29.5 4.5H2.5C1.12156 4.5 0 5.62156 0 7V25C0 26.3784 1.12156 27.5 2.5 27.5H29.5C30.8784 27.5 32 26.3784 32 25V7C32 5.62156 30.8784 4.5 29.5 4.5Z" fill="#5D647F"/>
<path d="M11 14.5H5C4.44769 14.5 4 14.0523 4 13.5V9.5C4 8.94769 4.44769 8.5 5 8.5H11C11.5523 8.5 12 8.94769 12 9.5V13.5C12 14.0523 11.5523 14.5 11 14.5Z" fill="#FFD100"/>
<path d="M7.5 21H5C4.44769 21 4 20.5523 4 20V19.5C4 18.9477 4.44769 18.5 5 18.5H7.5C8.05231 18.5 8.5 18.9477 8.5 19.5V20C8.5 20.5523 8.05231 21 7.5 21Z" fill="#B8BAC0"/>
<path d="M14 21H11.5C10.9477 21 10.5 20.5523 10.5 20V19.5C10.5 18.9477 10.9477 18.5 11.5 18.5H14C14.5523 18.5 15 18.9477 15 19.5V20C15 20.5523 14.5523 21 14 21Z" fill="#B8BAC0"/>
<path d="M20.5 21H18C17.4477 21 17 20.5523 17 20V19.5C17 18.9477 17.4477 18.5 18 18.5H20.5C21.0523 18.5 21.5 18.9477 21.5 19.5V20C21.5 20.5523 21.0523 21 20.5 21Z" fill="#B8BAC0"/>
<path d="M27 21H24.5C23.9477 21 23.5 20.5523 23.5 20V19.5C23.5 18.9477 23.9477 18.5 24.5 18.5H27C27.5523 18.5 28 18.9477 28 19.5V20C28 20.5523 27.5523 21 27 21Z" fill="#B8BAC0"/>
<path d="M14.5 24H4.5C4.22363 24 4 23.7761 4 23.5C4 23.2239 4.22363 23 4.5 23H14.5C14.7764 23 15 23.2239 15 23.5C15 23.7761 14.7764 24 14.5 24Z" fill="#8A8895"/>
<path d="M21 24H16.5C16.2236 24 16 23.7761 16 23.5C16 23.2239 16.2236 23 16.5 23H21C21.2764 23 21.5 23.2239 21.5 23.5C21.5 23.7761 21.2764 24 21 24Z" fill="#8A8895"/>
<path d="M12 12H7V11H12V10H7V8.5H6V14.5H7V13H12V12Z" fill="#FF9500"/>
<path d="M25 14.5C26.6569 14.5 28 13.1569 28 11.5C28 9.84315 26.6569 8.5 25 8.5C23.3431 8.5 22 9.84315 22 11.5C22 13.1569 23.3431 14.5 25 14.5Z" fill="#FF4F19"/>
</svg>
