<svg width="42" height="42" viewBox="0 0 42 42" fill="none" xmlns="http://www.w3.org/2000/svg">
<path d="M35.7656 4.92188H28.4497L27.6499 2.52345C27.1464 1.01415 25.7392 0 24.1483 0H17.8517C16.2607 0 14.8536 1.01415 14.349 2.52345L13.5501 4.92188H6.23438C4.19885 4.92188 2.54297 6.57776 2.54297 8.61328V11.0742C2.54297 12.4448 3.7768 12.3047 5.10095 12.3047C16.4667 12.3047 26.7716 12.3047 38.2266 12.3047C38.9067 12.3047 39.457 11.7543 39.457 11.0742V8.61328C39.457 6.57776 37.8011 4.92188 35.7656 4.92188ZM16.1448 4.92188L16.6838 3.30209C16.852 2.79858 17.3218 2.46094 17.8517 2.46094H24.1483C24.6782 2.46094 25.1481 2.79858 25.3151 3.30209L25.8546 4.92188H16.1448Z" fill="#C73535"/>
<path d="M5.30463 14.9297L7.26657 38.6426C7.4408 40.5568 9.02097 42 10.9424 42H31.0577C32.9791 42 34.5593 40.5568 34.7346 38.6318L36.6955 14.9297H5.30463ZM14.8476 35.8477C14.8476 37.4697 12.3867 37.4763 12.3867 35.8477V18.6211C12.3867 16.9991 14.8476 16.9924 14.8476 18.6211V35.8477ZM22.2305 35.8477C22.2305 37.4697 19.7695 37.4763 19.7695 35.8477V18.6211C19.7695 16.9991 22.2305 16.9924 22.2305 18.6211V35.8477ZM29.6133 35.8477C29.6133 37.4697 27.1523 37.4763 27.1523 35.8477V18.6211C27.1523 17.941 27.7027 17.3906 28.3828 17.3906C29.0629 17.3906 29.6133 17.941 29.6133 18.6211V35.8477Z" fill="#C73535"/>
</svg>
