<svg width="25" height="25" viewBox="0 0 25 25" fill="none" xmlns="http://www.w3.org/2000/svg">
<g clip-path="url(#clip0_10_302)">
<path d="M18.75 5C18.75 4.30967 18.1903 3.75 17.5 3.75H1.25C0.559668 3.75 0 4.30967 0 5C0 5.69033 0.559668 6.25 1.25 6.25H17.5C18.1903 6.25 18.75 5.69028 18.75 5V5ZM1.25 11.25H23.75C24.4403 11.25 25 11.8097 25 12.5C25 13.1903 24.4403 13.75 23.75 13.75H1.25C0.559668 13.75 0 13.1903 0 12.5C0 11.8097 0.559668 11.25 1.25 11.25ZM1.25 18.75H12.5C13.1903 18.75 13.75 19.3097 13.75 20C13.75 20.6903 13.1903 21.25 12.5 21.25H1.25C0.559668 21.25 0 20.6903 0 20C0 19.3097 0.559668 18.75 1.25 18.75Z" fill="#7A3787"/>
</g>
<defs>
<clipPath id="clip0_10_302">
<rect width="25" height="25" fill="white" transform="matrix(-1 0 0 1 25 0)"/>
</clipPath>
</defs>
</svg>
