<svg width="14" height="14" viewBox="0 0 14 14" fill="none" xmlns="http://www.w3.org/2000/svg">
<path d="M0.6563 3.06268H3.71905C3.80523 3.06268 3.89057 3.07966 3.9702 3.11264C4.04982 3.14562 4.12217 3.19396 4.18311 3.2549C4.24405 3.31585 4.29239 3.38819 4.32537 3.46782C4.35836 3.54744 4.37533 3.63278 4.37533 3.71897V6.12534C4.37533 6.2994 4.30619 6.46633 4.1831 6.58941C4.06002 6.71249 3.89309 6.78164 3.71903 6.78164H0.656285C0.482228 6.78164 0.315299 6.71249 0.192221 6.58941C0.0691441 6.46634 0 6.29941 0 6.12535V3.71899C0 3.6328 0.0169757 3.54746 0.0499579 3.46783C0.0829401 3.3882 0.131283 3.31585 0.192226 3.25491C0.253169 3.19397 0.325519 3.14563 0.405145 3.11264C0.484771 3.07966 0.570114 3.06269 0.6563 3.06269V3.06268Z" fill="#7A3787"/>
<path d="M7.00049 2.1875C7.60455 2.1875 8.09424 1.69781 8.09424 1.09375C8.09424 0.489689 7.60455 0 7.00049 0C6.39643 0 5.90674 0.489689 5.90674 1.09375C5.90674 1.69781 6.39643 2.1875 7.00049 2.1875Z" fill="#7A3787"/>
<path d="M2.40674 7.40525C2.4068 7.7449 2.54037 8.07092 2.77863 8.31299H6.33482V7.40408C6.33481 7.34632 6.31186 7.29092 6.27102 7.25007C6.23017 7.20923 6.17478 7.18628 6.11701 7.18628H2.62455C2.56666 7.18655 2.51124 7.20974 2.47042 7.25078C2.4296 7.29182 2.4067 7.34737 2.40674 7.40525Z" fill="#7A3787"/>
<path d="M13.2862 10.7972C13.1795 10.4028 12.9403 10.0572 12.6088 9.81842C12.2772 9.57964 11.8736 9.46228 11.4658 9.48607C11.5 9.35829 11.5177 9.22663 11.5183 9.09433C11.5142 8.88458 11.4592 8.67896 11.3581 8.49513C11.257 8.31131 11.1128 8.15478 10.9379 8.03898C10.4681 7.72739 10.1168 6.93491 10.0637 6.10131H10.4827C10.6559 6.10138 10.8221 6.03274 10.9448 5.91045C11.0674 5.78815 11.1366 5.6222 11.1371 5.44898V5.01455C11.1366 4.84134 11.0674 4.6754 10.9448 4.55312C10.8221 4.43085 10.6559 4.36223 10.4827 4.36232H8.98657C7.72166 3.99805 7.34113 3.57851 7.11371 3.32716C7.10901 3.32203 7.10442 3.3169 7.09993 3.31188C7.12264 3.14417 7.09228 2.97356 7.01313 2.82397C6.93397 2.67438 6.80999 2.55331 6.65855 2.47775C6.55044 2.42614 6.43208 2.3996 6.31228 2.40009C6.19248 2.40059 6.07434 2.42811 5.96666 2.4806C5.85898 2.5331 5.76453 2.60922 5.69035 2.70328C5.61617 2.79735 5.56417 2.90695 5.53823 3.0239L4.91056 6.02301C4.89206 6.1121 4.8924 6.20407 4.91156 6.29301C4.93071 6.38196 4.96826 6.46591 5.02178 6.53949C5.07531 6.61306 5.14363 6.67462 5.22237 6.72023C5.3011 6.76583 5.3885 6.79446 5.47895 6.80428L6.55441 6.92328C6.60984 6.92915 6.6609 6.95609 6.69704 6.99853C6.73318 7.04097 6.75164 7.09567 6.74861 7.15133L6.57911 10.0182C6.40321 9.8645 6.27815 9.66097 6.22045 9.4346C6.16276 9.20822 6.17516 8.96966 6.25601 8.75049H2.91234C2.55963 9.33473 1.99509 10.4302 2.22351 11.1428C2.2661 11.2769 2.3401 11.3989 2.43935 11.4986C2.5386 11.5983 2.66024 11.6729 2.79414 11.7162C2.89248 11.7462 2.99561 11.7574 3.09811 11.7492C3.12294 12.103 3.28101 12.4342 3.54045 12.6761C3.79988 12.918 4.14138 13.0525 4.49607 13.0524C4.85076 13.0524 5.19226 12.9179 5.45168 12.6761C5.71111 12.4342 5.86917 12.103 5.89399 11.7491L9.64331 11.7491C9.67975 11.7471 9.71543 11.7379 9.74828 11.722C9.78114 11.7061 9.81052 11.6839 9.83473 11.6565C9.8613 11.7858 9.90446 11.911 9.96314 12.0291C9.97956 12.0636 10.0047 12.093 10.0361 12.1147C10.0675 12.1363 10.1041 12.1493 10.1421 12.1524C10.1801 12.1555 10.2182 12.1485 10.2527 12.1322C10.2872 12.116 10.3167 12.0909 10.3385 12.0596C10.3639 12.023 10.3916 11.9873 10.4206 11.9522C10.4497 12.1411 10.5172 12.322 10.6188 12.4838C10.7205 12.6457 10.8542 12.785 11.0118 12.8932C11.1693 13.0014 11.3473 13.0762 11.5349 13.113C11.7224 13.1498 11.9155 13.1478 12.1022 13.1071C12.289 13.0665 12.4654 12.988 12.6207 12.8766C12.776 12.7652 12.9068 12.6232 13.0051 12.4593C13.1034 12.2954 13.1671 12.1131 13.1923 11.9237C13.2175 11.7342 13.2037 11.5416 13.1516 11.3577C13.208 11.3516 13.2597 11.3235 13.2955 11.2794C13.3314 11.2354 13.3484 11.1791 13.3429 11.1226C13.3346 11.0125 13.3156 10.9036 13.2862 10.7972V10.7972ZM4.49599 12.6169C4.25701 12.6168 4.02655 12.5281 3.84932 12.3677C3.6721 12.2074 3.56076 11.987 3.5369 11.7492L5.45519 11.7491C5.43132 11.9869 5.31995 12.2074 5.14271 12.3677C4.96547 12.5281 4.73499 12.6169 4.49599 12.6169V12.6169ZM8.73694 10.2273H7.88711L8.26288 6.67492C8.2779 6.53104 8.24467 6.38625 8.16841 6.26333C8.09214 6.1404 7.97718 6.04632 7.84159 5.99588L6.76965 5.59586C6.72038 5.57757 6.67943 5.54202 6.6544 5.49581C6.62937 5.4496 6.62196 5.39588 6.63356 5.34462L6.79667 4.64134C7.35432 5.08598 8.02759 5.36169 8.73694 5.43591V10.2273ZM11.9276 12.6815C11.7825 12.7006 11.6349 12.6864 11.4961 12.64C11.3572 12.5937 11.2308 12.5164 11.1262 12.4139C11.0216 12.3115 10.9418 12.1866 10.8926 12.0487C10.8434 11.9108 10.8262 11.7636 10.8424 11.6181L10.909 11.5352C11.4099 11.2246 12.0068 11.1072 12.588 11.2049L12.6397 11.2448C12.7191 11.3822 12.7634 11.5371 12.7684 11.6957C12.7735 11.8544 12.7393 12.0118 12.6688 12.154C12.5983 12.2962 12.4938 12.4188 12.3645 12.5108C12.2352 12.6028 12.0851 12.6615 11.9276 12.6815V12.6815Z" fill="#7A3787"/>
</svg>
