<svg width="10" height="7" viewBox="0 0 10 7" fill="none" xmlns="http://www.w3.org/2000/svg">
<g clip-path="url(#clip0_95_1352)">
<path d="M5.00211 4.444L1.26098 0.777841C1.15821 0.676893 1.02081 0.62136 0.874309 0.62136C0.727723 0.62136 0.590406 0.676893 0.487479 0.777841L0.159837 1.09909C0.0567477 1.19988 -2.20483e-07 1.33461 -2.14207e-07 1.47818C-2.07931e-07 1.62176 0.0567478 1.75633 0.159837 1.85719L4.61398 6.22234C4.71724 6.3236 4.8552 6.37906 5.00187 6.37866C5.14919 6.37906 5.28699 6.32368 5.39033 6.22234L9.84016 1.86126C9.94325 1.76039 10 1.62582 10 1.48217C10 1.33859 9.94325 1.20402 9.84016 1.10307L9.51252 0.781904C9.29927 0.572917 8.95211 0.572917 8.73894 0.781904L5.00211 4.444Z" fill="black"/>
</g>
<defs>
<clipPath id="clip0_95_1352">
<rect width="7" height="10" fill="white" transform="translate(0 7) rotate(-90)"/>
</clipPath>
</defs>
</svg>
