<svg width="16" height="15" viewBox="0 0 16 15" fill="none" xmlns="http://www.w3.org/2000/svg">
<path d="M7.944 2.86303C7.17367 2.14032 6.15628 1.7393 5.1 1.74203C4.0216 1.73351 2.98395 2.15354 2.21513 2.9098C1.44631 3.66606 1.00924 4.69664 1 5.77503C1 9.54203 7.443 13.691 7.443 13.691C7.585 13.8019 7.75498 13.8711 7.934 13.891C8.11905 13.8747 8.29545 13.8052 8.442 13.691C8.442 13.691 14.885 9.54203 14.885 5.77503C14.8804 5.24081 14.7707 4.71272 14.562 4.22092C14.3533 3.72912 14.0498 3.28323 13.6688 2.90873C13.2878 2.53423 12.8368 2.23844 12.3414 2.03826C11.8461 1.83808 11.3162 1.73742 10.782 1.74203C9.72751 1.73931 8.76799 2.2774 8 3L7.944 2.86303Z" stroke="black" stroke-width="2" stroke-miterlimit="10" stroke-linejoin="round"/>
</svg>
