<svg width="32" height="32" viewBox="0 0 32 32" fill="none" xmlns="http://www.w3.org/2000/svg">
<path d="M25.1264 27.1799C25.3916 27.1799 25.646 27.0746 25.8335 26.8871C26.021 26.6995 26.1264 26.4452 26.1264 26.1799V23.0699C26.9364 22.8528 27.6521 22.3744 28.1625 21.7091C28.673 21.0437 28.9496 20.2285 28.9496 19.3899C28.9496 18.5514 28.673 17.7362 28.1625 17.0708C27.6521 16.4055 26.9364 15.9271 26.1264 15.7099V5.81995C26.1264 5.55473 26.021 5.30038 25.8335 5.11284C25.646 4.9253 25.3916 4.81995 25.1264 4.81995C24.8612 4.81995 24.6068 4.9253 24.4193 5.11284C24.2318 5.30038 24.1264 5.55473 24.1264 5.81995V15.7199C23.3164 15.9371 22.6007 16.4155 22.0903 17.0808C21.5798 17.7462 21.3032 18.5614 21.3032 19.3999C21.3032 20.2385 21.5798 21.0537 22.0903 21.7191C22.6007 22.3844 23.3164 22.8628 24.1264 23.0799V26.1899C24.129 26.4534 24.2356 26.7052 24.4228 26.8906C24.6101 27.076 24.8629 27.18 25.1264 27.1799ZM23.2964 19.3899C23.2964 19.028 23.4037 18.6742 23.6048 18.3733C23.8059 18.0723 24.0917 17.8378 24.4261 17.6992C24.7605 17.5607 25.1284 17.5245 25.4834 17.5951C25.8384 17.6657 26.1645 17.84 26.4204 18.0959C26.6763 18.3519 26.8506 18.6779 26.9212 19.0329C26.9918 19.3879 26.9556 19.7559 26.8171 20.0903C26.6786 20.4246 26.444 20.7105 26.1431 20.9115C25.8422 21.1126 25.4883 21.2199 25.1264 21.2199C24.6411 21.2199 24.1756 21.0271 23.8324 20.684C23.4892 20.3408 23.2964 19.8753 23.2964 19.3899Z" fill="#7A3787"/>
<path d="M15.4733 27.18C15.7385 27.18 15.9928 27.0746 16.1804 26.8871C16.3679 26.6996 16.4733 26.4452 16.4733 26.18V12.32C17.3695 12.0776 18.1471 11.5179 18.6615 10.745C19.176 9.97219 19.3922 9.03878 19.2699 8.11845C19.1476 7.19813 18.6952 6.35354 17.9969 5.74181C17.2985 5.13008 16.4017 4.79285 15.4733 4.79285C14.5448 4.79285 13.648 5.13008 12.9497 5.74181C12.2513 6.35354 11.7989 7.19813 11.6766 8.11845C11.5543 9.03878 11.7705 9.97219 12.285 10.745C12.7994 11.5179 13.5771 12.0776 14.4733 12.32V26.18C14.4733 26.4452 14.5786 26.6996 14.7662 26.8871C14.9537 27.0746 15.208 27.18 15.4733 27.18ZM13.6433 8.64999C13.6413 8.28763 13.7469 7.93285 13.9468 7.63059C14.1467 7.32834 14.4318 7.09222 14.766 6.95218C15.1002 6.81214 15.4685 6.77447 15.8241 6.84395C16.1797 6.91342 16.5068 7.08692 16.7637 7.34245C17.0206 7.59798 17.1959 7.92403 17.2673 8.27929C17.3388 8.63454 17.3031 9.003 17.1649 9.33798C17.0267 9.67295 16.7921 9.95935 16.491 10.1609C16.1898 10.3624 15.8356 10.47 15.4733 10.47C14.9896 10.47 14.5257 10.2786 14.1828 9.93754C13.8399 9.59651 13.6459 9.13361 13.6433 8.64999Z" fill="#7A3787"/>
<path d="M4.82 19.6799V26.1799C4.82 26.4452 4.92536 26.6995 5.1129 26.8871C5.30043 27.0746 5.55479 27.1799 5.82 27.1799C6.08522 27.1799 6.33957 27.0746 6.52711 26.8871C6.71465 26.6995 6.82 26.4452 6.82 26.1799V19.6799C7.62998 19.4628 8.34568 18.9844 8.85612 18.3191C9.36657 17.6537 9.64324 16.8385 9.64324 15.9999C9.64324 15.1614 9.36657 14.3462 8.85612 13.6808C8.34568 13.0155 7.62998 12.5371 6.82 12.3199V5.81995C6.82 5.55473 6.71465 5.30038 6.52711 5.11284C6.33957 4.9253 6.08522 4.81995 5.82 4.81995C5.55479 4.81995 5.30043 4.9253 5.1129 5.11284C4.92536 5.30038 4.82 5.55473 4.82 5.81995V12.3199C4.01002 12.5371 3.29432 13.0155 2.78388 13.6808C2.27344 14.3462 1.99677 15.1614 1.99677 15.9999C1.99677 16.8385 2.27344 17.6537 2.78388 18.3191C3.29432 18.9844 4.01002 19.4628 4.82 19.6799ZM5.82 14.1699C6.18236 14.168 6.53715 14.2736 6.83941 14.4735C7.14166 14.6734 7.37777 14.9585 7.51782 15.2927C7.65786 15.6269 7.69553 15.9952 7.62605 16.3508C7.55657 16.7064 7.38308 17.0334 7.12755 17.2904C6.87202 17.5473 6.54597 17.7226 6.19071 17.794C5.83546 17.8654 5.46699 17.8298 5.13202 17.6916C4.79705 17.5534 4.51065 17.3188 4.30912 17.0177C4.10759 16.7165 4.00001 16.3623 4 15.9999C4 15.5163 4.19143 15.0524 4.53246 14.7095C4.87349 14.3666 5.33639 14.1726 5.82 14.1699Z" fill="#7A3787"/>
</svg>
