<svg width="20" height="18" viewBox="0 0 20 18" fill="none" xmlns="http://www.w3.org/2000/svg">
<path d="M16.4879 17.051H4.33892C4.10879 17.0507 3.88817 16.9592 3.72544 16.7965C3.56272 16.6337 3.47118 16.4131 3.47092 16.183V8.37198H0.86792L9.82892 0.225978C9.98881 0.0808721 10.197 0.000488281 10.4129 0.000488281C10.6288 0.000488281 10.837 0.0808721 10.9969 0.225978L19.9579 8.37298H17.3579V16.183C17.3578 16.2971 17.3352 16.4101 17.2914 16.5155C17.2476 16.6208 17.1835 16.7166 17.1027 16.7972C17.0219 16.8778 16.926 16.9417 16.8205 16.9852C16.7151 17.0288 16.602 17.0511 16.4879 17.051ZM10.4139 2.04098L5.20692 6.77398V15.315H15.6209V6.77398L10.4139 2.04098ZM13.8859 13.58H6.94292V11.844H13.8849V13.579L13.8859 13.58Z" fill="#161615"/>
</svg>
