<svg width="37" height="37" viewBox="0 0 37 37" fill="none" xmlns="http://www.w3.org/2000/svg">
<g clip-path="url(#clip0_62_208)">
<path d="M37 18.5C37 8.28273 28.7173 0 18.5 0C8.28273 0 0 8.28273 0 18.5C0 28.7173 8.28273 37 18.5 37C28.7173 37 37 28.7173 37 18.5Z" fill="url(#paint0_linear_62_208)"/>
<path opacity="0.1" d="M32.4237 6.32897C29.7266 11.2802 25.9122 16.3871 21.146 21.1533C16.3798 25.9195 11.2729 29.7266 6.32898 32.4237C6.01903 32.1543 5.718 31.8736 5.42589 31.5815C3.66025 29.8748 2.25207 27.8336 1.28344 25.5771C0.314816 23.3205 -0.194863 20.8937 -0.215875 18.4381C-0.236888 15.9826 0.231186 13.5474 1.16105 11.2746C2.09092 9.00179 3.46397 6.93685 5.20015 5.2002C6.93632 3.46354 9.00087 2.08991 11.2734 1.15941C13.5459 0.228907 15.981 -0.239847 18.4366 -0.21952C20.8922 -0.199193 23.3191 0.309808 25.5759 1.2778C27.8328 2.2458 29.8743 3.65342 31.5815 5.41858C31.8736 5.71068 32.1543 6.01415 32.4237 6.32897Z" fill="white"/>
<path d="M22.8816 8.76318H14.1184C12.6981 8.76318 11.336 9.3274 10.3317 10.3317C9.3274 11.336 8.76318 12.6981 8.76318 14.1184V22.8816C8.76318 24.3019 9.3274 25.664 10.3317 26.6683C11.336 27.6727 12.6981 28.2369 14.1184 28.2369H22.8816C24.3019 28.2369 25.664 27.6727 26.6683 26.6683C27.6727 25.664 28.2369 24.3019 28.2369 22.8816V14.1184C28.2369 12.6981 27.6727 11.336 26.6683 10.3317C25.664 9.3274 24.3019 8.76318 22.8816 8.76318ZM26.5329 22.1124C26.5329 23.2848 26.0672 24.4092 25.2382 25.2382C24.4092 26.0672 23.2848 26.5329 22.1124 26.5329H14.8877C13.7153 26.5329 12.5909 26.0672 11.7619 25.2382C10.9329 24.4092 10.4671 23.2848 10.4671 22.1124V14.8877C10.4671 13.7153 10.9329 12.5909 11.7619 11.7619C12.5909 10.9329 13.7153 10.4671 14.8877 10.4671H22.1124C23.2848 10.4671 24.4092 10.9329 25.2382 11.7619C26.0672 12.5909 26.5329 13.7153 26.5329 14.8877V22.1124Z" fill="white"/>
<path d="M22.0516 14.985L22.0054 14.9388L21.9664 14.8998C21.0461 13.9826 19.7995 13.4679 18.5001 13.4685C17.844 13.473 17.1951 13.6067 16.5906 13.862C15.9861 14.1173 15.4379 14.4892 14.9772 14.9564C14.5165 15.4237 14.1524 15.9771 13.9056 16.5852C13.6589 17.1932 13.5344 17.8439 13.5392 18.5C13.5382 19.8317 14.0631 21.1098 14.9997 22.0564C15.4585 22.5208 16.0052 22.8891 16.6078 23.1398C17.2105 23.3906 17.8571 23.5188 18.5099 23.5169C19.489 23.4964 20.441 23.1914 21.2497 22.6391C22.0585 22.0868 22.6891 21.3111 23.0646 20.4066C23.44 19.5021 23.5442 18.5079 23.3643 17.5452C23.1845 16.5825 22.7284 15.6929 22.0516 14.985ZM18.5001 21.8008C17.8454 21.81 17.2027 21.6242 16.6539 21.2671C16.105 20.9101 15.6747 20.3978 15.4178 19.7956C15.1609 19.1933 15.0889 18.5282 15.211 17.8849C15.3331 17.2416 15.6437 16.6491 16.1034 16.1829C16.5632 15.7166 17.1512 15.3976 17.7927 15.2664C18.4342 15.1353 19.1003 15.1979 19.7061 15.4463C20.3119 15.6947 20.8302 16.1177 21.195 16.6615C21.5598 17.2053 21.7546 17.8452 21.7547 18.5C21.7579 18.9305 21.6762 19.3574 21.5144 19.7563C21.3525 20.1552 21.1136 20.5183 20.8114 20.8248C20.5091 21.1314 20.1494 21.3753 19.7529 21.5428C19.3563 21.7103 18.9306 21.7979 18.5001 21.8008Z" fill="white"/>
<path d="M24.9336 13.2373C24.9349 13.3935 24.9054 13.5484 24.8467 13.6932C24.7881 13.8379 24.7014 13.9697 24.5918 14.0809C24.4821 14.1922 24.3516 14.2807 24.2077 14.3414C24.0637 14.4022 23.9093 14.4339 23.7531 14.4349C23.5982 14.4348 23.4448 14.404 23.3019 14.3443C23.159 14.2845 23.0294 14.197 22.9206 14.0868C22.7556 13.9195 22.6435 13.7074 22.5979 13.477C22.5524 13.2465 22.5755 13.0077 22.6644 12.7903C22.7533 12.5728 22.9041 12.3862 23.0981 12.2537C23.292 12.1211 23.5206 12.0484 23.7555 12.0445C24.0304 12.0444 24.2966 12.1409 24.5077 12.3171L24.532 12.3415C24.5713 12.3734 24.6072 12.4093 24.6391 12.4486L24.6659 12.4778C24.8401 12.6924 24.9347 12.9608 24.9336 13.2373Z" fill="white"/>
</g>
<defs>
<linearGradient id="paint0_linear_62_208" x1="5.41855" y1="5.41855" x2="31.5814" y2="31.5814" gradientUnits="userSpaceOnUse">
<stop stop-color="#FAE100"/>
<stop offset="0.15" stop-color="#FCB720"/>
<stop offset="0.3" stop-color="#FF7950"/>
<stop offset="0.5" stop-color="#FF1C74"/>
<stop offset="1" stop-color="#6C1CD1"/>
</linearGradient>
<clipPath id="clip0_62_208">
<rect width="37" height="37" fill="white"/>
</clipPath>
</defs>
</svg>
