<svg width="28" height="28" viewBox="0 0 28 28" fill="none" xmlns="http://www.w3.org/2000/svg">
<circle cx="14" cy="14" r="14" fill="#7A3787"/>
<g clip-path="url(#clip0_306_795)">
<path d="M14 5.25C10.925 5.25 8.36035 7.727 8.36035 10.8896C8.36035 12.0928 8.7219 13.1657 9.41579 14.1711L13.5684 20.6509C13.7699 20.9659 14.2305 20.9653 14.4316 20.6509L18.6022 14.1491C19.2812 13.1893 19.6396 12.0623 19.6396 10.8896C19.6396 7.77995 17.1097 5.25 14 5.25ZM14 13.4531C12.5866 13.4531 11.4365 12.3031 11.4365 10.8896C11.4365 9.47622 12.5866 8.32617 14 8.32617C15.4134 8.32617 16.5635 9.47622 16.5635 10.8896C16.5635 12.3031 15.4134 13.4531 14 13.4531Z" fill="white"/>
<path d="M18.008 17.0315L15.4264 21.0677C14.7582 22.1095 13.2381 22.1061 12.5731 21.0687L9.98724 17.0326C7.7121 17.5586 6.30957 18.5222 6.30957 19.6738C6.30957 21.672 10.272 22.7499 14 22.7499C17.728 22.7499 21.6904 21.672 21.6904 19.6738C21.6904 18.5214 20.286 17.5572 18.008 17.0315Z" fill="white"/>
</g>
<defs>
<clipPath id="clip0_306_795">
<rect width="17.5" height="17.5" fill="white" transform="translate(5.25 5.25)"/>
</clipPath>
</defs>
</svg>
