<svg width="71" height="76" viewBox="0 0 71 76" fill="none" xmlns="http://www.w3.org/2000/svg">
    <g clip-path="url(#clip0_517_353)">
        <path d="M35.5 76C55.1061 76 71 60.1061 71 40.5C71 20.8939 55.1061 5 35.5 5C15.8939 5 0 20.8939 0 40.5C0 60.1061 15.8939 76 35.5 76Z" fill="#91599B"/>
        <mask id="mask0_517_353" style="mask-type:alpha" maskUnits="userSpaceOnUse" x="-2" y="-9" width="75" height="85">
            <path d="M35.5 76C56.2107 76 73 56.9721 73 33.5C73 10.0279 56.2107 -9 35.5 -9C14.7893 -9 -2 10.0279 -2 33.5C-2 56.9721 14.7893 76 35.5 76Z" fill="#ffffff"/>
        </mask>   <g mask="url(#mask0_517_353)">
        <path d="M60.4209 54.7195L44.5441 51.5442H27.3087L11.432 54.7195C8.61947 55.282 6.08862 56.8014 4.26993 59.0193C2.45124 61.2372 1.45704 64.0166 1.45642 66.8849V91.3972C1.45642 93.6256 2.34164 95.7627 3.91735 97.3384C5.49305 98.9141 7.63016 99.7994 9.85854 99.7994H61.9935C64.2219 99.7994 66.359 98.9141 67.9347 97.3384C69.5104 95.7627 70.3956 93.6256 70.3956 91.3972V66.8849C70.3955 64.0166 69.4017 61.2369 67.5833 59.0187C65.7649 56.8005 63.2342 55.2807 60.4217 54.7179L60.4209 54.7195Z" fill="#F3F5E6"/>
        <path d="M70.3948 66.8857V91.3977C70.3948 93.626 69.5096 95.7631 67.9339 97.3389C66.3581 98.9146 64.221 99.7998 61.9927 99.7998H51.0043L39.7732 94.2772L56.872 59.5126C57.7701 57.6851 59.0404 56.0655 60.6014 54.758C63.3745 55.3553 65.8591 56.8849 67.6412 59.092C69.4233 61.2991 70.3951 64.0502 70.3948 66.8869V66.8857Z" fill="#EAEAE8"/>
        <path d="M20.4144 8.45688H51.4371V29.1384H20.4144V8.45688Z" fill="#F3F5E6"/>
        <path d="M51.4367 8.45688V18.9288C49.6103 19.6653 47.5812 19.727 45.7134 19.1028C43.8457 18.4786 42.2614 17.2094 41.2447 15.5229C39.7552 16.7752 37.8716 17.4618 35.9256 17.4618C33.9796 17.4618 32.096 16.7752 30.6064 15.5229C29.5898 17.2094 28.0055 18.4786 26.1377 19.1028C24.2699 19.727 22.2408 19.6653 20.4144 18.9288V8.45688H51.4367Z" fill="#EAEAE8"/>
        <path d="M27.3087 22.245C26.8516 22.245 26.4132 22.0634 26.09 21.7402C25.7668 21.417 25.5852 20.9786 25.5852 20.5215V15.3511C25.5852 14.8941 25.7668 14.4557 26.09 14.1325C26.4132 13.8093 26.8516 13.6277 27.3087 13.6277C27.7658 13.6277 28.2041 13.8093 28.5273 14.1325C28.8505 14.4557 29.0321 14.8941 29.0321 15.3511V20.5215C29.0321 20.7478 28.9875 20.972 28.9009 21.1811C28.8143 21.3902 28.6874 21.5802 28.5273 21.7402C28.3673 21.9002 28.1773 22.0272 27.9682 22.1138C27.7591 22.2004 27.535 22.245 27.3087 22.245Z" fill="#CBCBCB"/>
        <path d="M35.9256 22.245C35.4685 22.245 35.0302 22.0634 34.707 21.7402C34.3838 21.417 34.2021 20.9786 34.2021 20.5215V13.6277C34.2021 13.1706 34.3838 12.7322 34.707 12.409C35.0302 12.0858 35.4685 11.9042 35.9256 11.9042C36.3827 11.9042 36.8211 12.0858 37.1443 12.409C37.4675 12.7322 37.6492 13.1706 37.6492 13.6277V20.5215C37.6492 20.9786 37.4675 21.417 37.1443 21.7402C36.8211 22.0634 36.3827 22.245 35.9256 22.245Z" fill="#CBCBCB"/>
        <path d="M44.5433 22.245C44.0862 22.245 43.6478 22.0634 43.3246 21.7402C43.0014 21.417 42.8198 20.9786 42.8198 20.5215V15.3511C42.8198 14.8941 43.0014 14.4557 43.3246 14.1325C43.6478 13.8093 44.0862 13.6277 44.5433 13.6277C45.0004 13.6277 45.4387 13.8093 45.762 14.1325C46.0852 14.4557 46.2667 14.8941 46.2667 15.3511V20.5215C46.2667 20.7478 46.2222 20.972 46.1356 21.1811C46.0489 21.3902 45.922 21.5802 45.762 21.7402C45.6019 21.9002 45.4119 22.0272 45.2028 22.1138C44.9937 22.2004 44.7696 22.245 44.5433 22.245Z" fill="#CBCBCB"/>
        <path d="M23.8618 44.6499H20.4149C19.0436 44.6499 17.7285 44.1052 16.7589 43.1356C15.7892 42.1659 15.2445 40.8508 15.2445 39.4796C15.2445 38.1083 15.7892 36.7932 16.7589 35.8235C17.7285 34.8539 19.0436 34.3092 20.4149 34.3092H23.8618V44.6499Z" fill="#F6BB92"/>
        <path d="M47.9902 34.3092H51.4372C52.1161 34.3092 52.7885 34.4429 53.4158 34.7027C54.0431 34.9626 54.613 35.3434 55.0932 35.8235C55.5733 36.3037 55.9541 36.8736 56.214 37.5009C56.4738 38.1282 56.6075 38.8006 56.6075 39.4796C56.6075 40.1585 56.4738 40.8309 56.214 41.4582C55.9541 42.0855 55.5733 42.6554 55.0932 43.1356C54.613 43.6157 54.0431 43.9965 53.4158 44.2564C52.7885 44.5162 52.1161 44.6499 51.4372 44.6499H47.9902V34.3092Z" fill="#F6BB92"/>
        <path d="M32.4791 60.1611L30.3374 62.3028C28.3982 64.2419 27.3088 66.872 27.3087 69.6144V73.9487L32.045 70.1596C33.256 69.1908 34.2336 67.9621 34.9054 66.5643C35.5772 65.1665 35.926 63.6355 35.926 62.0847V60.1627L32.4791 60.1611Z" fill="#D7D9CC"/>
        <path d="M39.3729 60.1611L41.5146 62.3028C43.4538 64.2419 44.5432 66.872 44.5433 69.6144V73.9487L39.807 70.1601C38.596 69.1913 37.6184 67.9625 36.9466 66.5647C36.2748 65.1669 35.926 63.6359 35.926 62.0851V60.1632L39.3729 60.1611Z" fill="#D7D9CC"/>
        <path d="M35.9259 63.608C37.8296 63.608 39.3728 62.0647 39.3728 60.1611C39.3728 58.2574 37.8296 56.7141 35.9259 56.7141C34.0222 56.7141 32.479 58.2574 32.479 60.1611C32.479 62.0647 34.0222 63.608 35.9259 63.608Z" fill="#D7D9CC"/>
        <path d="M22.1395 29.1388H49.7149V41.203C49.7149 44.8597 48.2622 48.3667 45.6766 50.9524C43.0909 53.5381 39.5839 54.9907 35.9272 54.9907C32.2705 54.9907 28.7635 53.5381 26.1778 50.9524C23.5922 48.3667 22.1395 44.8597 22.1395 41.203V29.1388Z" fill="#FDC9A6"/>
        <path d="M29.4629 39.4792C30.6527 39.4792 31.6172 38.5147 31.6172 37.3249C31.6172 36.1352 30.6527 35.1707 29.4629 35.1707C28.2732 35.1707 27.3087 36.1352 27.3087 37.3249C27.3087 38.5147 28.2732 39.4792 29.4629 39.4792Z" fill="#683B0D"/>
        <path d="M42.3886 39.4792C43.5783 39.4792 44.5428 38.5147 44.5428 37.3249C44.5428 36.1352 43.5783 35.1707 42.3886 35.1707C41.1989 35.1707 40.2344 36.1352 40.2344 37.3249C40.2344 38.5147 41.1989 39.4792 42.3886 39.4792Z" fill="#683B0D"/>
        <path d="M35.9259 48.0918C34.4615 48.0933 33.0168 47.754 31.7061 47.1008C31.2972 46.8963 30.9864 46.5379 30.8418 46.1042C30.6973 45.6706 30.731 45.1973 30.9354 44.7884C31.1399 44.3796 31.4983 44.0687 31.932 43.9242C32.3656 43.7797 32.8389 43.8133 33.2478 44.0178C34.0793 44.4311 34.9953 44.6461 35.9238 44.6461C36.8524 44.6461 37.7684 44.4311 38.5999 44.0178C38.8023 43.9166 39.0227 43.8562 39.2485 43.8401C39.4742 43.8241 39.701 43.8526 39.9157 43.9242C40.1304 43.9958 40.3289 44.1089 40.4999 44.2572C40.6709 44.4055 40.811 44.586 40.9123 44.7884C41.0135 44.9909 41.0739 45.2113 41.0899 45.437C41.106 45.6628 41.0774 45.8895 41.0058 46.1042C40.9343 46.3189 40.8211 46.5175 40.6728 46.6885C40.5246 46.8594 40.344 46.9996 40.1416 47.1008C38.8316 47.7537 37.3876 48.093 35.9238 48.0918H35.9259Z" fill="#683B0D"/>
        <path d="M51.4371 8.45731V18.9293C49.6106 19.6657 47.5816 19.7274 45.7138 19.1032C43.846 18.4791 42.2617 17.2099 41.245 15.5233C39.7555 16.7756 37.8719 17.4622 35.9259 17.4622C33.9799 17.4622 32.0963 16.7756 30.6068 15.5233C29.5901 17.2099 28.0058 18.4791 26.138 19.1032C24.2703 19.7274 22.2412 19.6657 20.4148 18.9293V8.45731H51.4371Z" fill="#CBCBCB"/>
        <path d="M48.3348 1.90773C46.3881 1.90516 44.5033 2.59212 43.0149 3.84678C42.2793 2.62387 41.24 1.61202 39.9978 0.909567C38.7556 0.207115 37.3528 -0.162048 35.9257 -0.162048C34.4986 -0.162048 33.0958 0.207115 31.8536 0.909567C30.6114 1.61202 29.5721 2.62387 28.8365 3.84678C27.5412 2.75902 25.9435 2.09448 24.2588 1.94272C22.5741 1.79097 20.8834 2.15928 19.4145 2.99804C17.9456 3.8368 16.7692 5.10568 16.0436 6.63368C15.3181 8.16169 15.0784 9.87537 15.3569 11.5438C15.6353 13.2122 16.4185 14.7552 17.601 15.9648C18.7834 17.1743 20.3082 17.9924 21.9698 18.3087C23.6315 18.6249 25.3502 18.4242 26.8943 17.7336C28.4384 17.043 29.7336 15.8956 30.6055 14.4462C32.0953 15.6986 33.9792 16.3853 35.9255 16.3853C37.8718 16.3853 39.7557 15.6986 41.2454 14.4462C41.9909 15.6848 43.048 16.7065 44.3114 17.4094C45.5747 18.1123 47.0002 18.4718 48.4458 18.4522C49.8913 18.4325 51.3065 18.0344 52.5503 17.2974C53.7941 16.5605 54.823 15.5105 55.5346 14.252C56.2461 12.9935 56.6155 11.5705 56.6058 10.1249C56.5961 8.67918 56.2077 7.26128 55.4793 6.01246C54.751 4.76364 53.708 3.7275 52.4545 3.0073C51.2009 2.2871 49.7805 1.90799 48.3348 1.90773Z" fill="#F3F5E6"/>
    </g>
    </g>

    <defs>
        <clipPath id="clip0_517_353">
            <rect width="71" height="76" fill="white"/>
        </clipPath>
    </defs>
</svg>
