<svg width="14" height="14" viewBox="0 0 14 14" fill="none" xmlns="http://www.w3.org/2000/svg">
<path d="M0.6563 3.06274H3.71905C3.80523 3.06274 3.89057 3.07972 3.9702 3.1127C4.04982 3.14568 4.12217 3.19402 4.18311 3.25497C4.24405 3.31591 4.29239 3.38826 4.32537 3.46788C4.35836 3.5475 4.37533 3.63284 4.37533 3.71903V6.1254C4.37533 6.29946 4.30619 6.46639 4.1831 6.58947C4.06002 6.71255 3.89309 6.7817 3.71903 6.7817H0.656285C0.482228 6.7817 0.315299 6.71255 0.192221 6.58948C0.0691441 6.4664 0 6.29947 0 6.12541V3.71905C0 3.63286 0.0169757 3.54752 0.0499579 3.46789C0.0829401 3.38827 0.131283 3.31592 0.192226 3.25497C0.253169 3.19403 0.325519 3.14569 0.405145 3.1127C0.484771 3.07972 0.570114 3.06275 0.6563 3.06275V3.06274Z" fill="#7A3787"/>
<path d="M7.00049 2.1875C7.60455 2.1875 8.09424 1.69781 8.09424 1.09375C8.09424 0.489689 7.60455 0 7.00049 0C6.39643 0 5.90674 0.489689 5.90674 1.09375C5.90674 1.69781 6.39643 2.1875 7.00049 2.1875Z" fill="#7A3787"/>
<path d="M2.40674 7.40525C2.4068 7.7449 2.54037 8.07092 2.77863 8.31299H6.33482V7.40408C6.33481 7.34632 6.31186 7.29092 6.27102 7.25007C6.23017 7.20923 6.17478 7.18628 6.11701 7.18628H2.62455C2.56666 7.18655 2.51124 7.20974 2.47042 7.25078C2.4296 7.29182 2.4067 7.34737 2.40674 7.40525Z" fill="#7A3787"/>
<path d="M13.2862 10.7973C13.1795 10.4029 12.9403 10.0573 12.6088 9.81848C12.2772 9.5797 11.8736 9.46234 11.4658 9.48613C11.5 9.35835 11.5177 9.22669 11.5183 9.09439C11.5142 8.88464 11.4592 8.67902 11.3581 8.49519C11.257 8.31137 11.1128 8.15484 10.9379 8.03904C10.4681 7.72745 10.1168 6.93497 10.0637 6.10137H10.4827C10.6559 6.10144 10.8221 6.0328 10.9448 5.91051C11.0674 5.78822 11.1366 5.62226 11.1371 5.44904V5.01461C11.1366 4.8414 11.0674 4.67546 10.9448 4.55318C10.8221 4.43091 10.6559 4.36229 10.4827 4.36238H8.98657C7.72166 3.99811 7.34113 3.57857 7.11371 3.32722C7.10901 3.32209 7.10442 3.31697 7.09993 3.31195C7.12264 3.14423 7.09228 2.97362 7.01313 2.82403C6.93397 2.67444 6.80999 2.55338 6.65855 2.47781C6.55044 2.4262 6.43208 2.39966 6.31228 2.40015C6.19248 2.40065 6.07434 2.42817 5.96666 2.48066C5.85898 2.53316 5.76453 2.60928 5.69035 2.70335C5.61617 2.79741 5.56417 2.90701 5.53823 3.02397L4.91056 6.02308C4.89206 6.11216 4.8924 6.20413 4.91156 6.29307C4.93071 6.38202 4.96826 6.46597 5.02178 6.53955C5.07531 6.61312 5.14363 6.67469 5.22237 6.72029C5.3011 6.76589 5.3885 6.79452 5.47895 6.80434L6.55441 6.92334C6.60984 6.92921 6.6609 6.95615 6.69704 6.99859C6.73318 7.04103 6.75164 7.09573 6.74861 7.15139L6.57911 10.0183C6.40321 9.86456 6.27815 9.66103 6.22045 9.43466C6.16276 9.20828 6.17516 8.96972 6.25601 8.75055H2.91234C2.55963 9.33479 1.99509 10.4303 2.22351 11.1428C2.2661 11.2769 2.3401 11.3989 2.43935 11.4987C2.5386 11.5984 2.66024 11.673 2.79414 11.7162C2.89248 11.7463 2.99561 11.7575 3.09811 11.7492C3.12294 12.1031 3.28101 12.4343 3.54045 12.6762C3.79988 12.918 4.14138 13.0525 4.49607 13.0525C4.85076 13.0525 5.19226 12.918 5.45168 12.6761C5.71111 12.4343 5.86917 12.103 5.89399 11.7492L9.64331 11.7491C9.67975 11.7471 9.71543 11.7379 9.74828 11.722C9.78114 11.7062 9.81052 11.6839 9.83473 11.6566C9.8613 11.7858 9.90446 11.9111 9.96314 12.0292C9.97956 12.0636 10.0047 12.0931 10.0361 12.1147C10.0675 12.1364 10.1041 12.1494 10.1421 12.1525C10.1801 12.1555 10.2182 12.1486 10.2527 12.1323C10.2872 12.116 10.3167 12.091 10.3385 12.0597C10.3639 12.0231 10.3916 11.9874 10.4206 11.9522C10.4497 12.1411 10.5172 12.3221 10.6188 12.4839C10.7205 12.6457 10.8542 12.785 11.0118 12.8932C11.1693 13.0014 11.3473 13.0762 11.5349 13.113C11.7224 13.1498 11.9155 13.1479 12.1022 13.1072C12.289 13.0666 12.4654 12.9881 12.6207 12.8767C12.776 12.7653 12.9068 12.6232 13.0051 12.4593C13.1034 12.2955 13.1671 12.1132 13.1923 11.9237C13.2175 11.7343 13.2037 11.5417 13.1516 11.3578C13.208 11.3516 13.2597 11.3235 13.2955 11.2795C13.3314 11.2355 13.3484 11.1791 13.3429 11.1226C13.3346 11.0126 13.3156 10.9036 13.2862 10.7973ZM4.49599 12.6169C4.25701 12.6169 4.02655 12.5281 3.84932 12.3678C3.6721 12.2075 3.56076 11.987 3.5369 11.7492L5.45519 11.7492C5.43132 11.987 5.31995 12.2075 5.14271 12.3678C4.96547 12.5281 4.73499 12.6169 4.49599 12.6169ZM8.73694 10.2274H7.88711L8.26288 6.67498C8.2779 6.5311 8.24467 6.38631 8.16841 6.26339C8.09214 6.14046 7.97718 6.04638 7.84159 5.99594L6.76965 5.59592C6.72038 5.57763 6.67943 5.54208 6.6544 5.49587C6.62937 5.44966 6.62196 5.39594 6.63356 5.34468L6.79667 4.6414C7.35432 5.08604 8.02759 5.36176 8.73694 5.43597V10.2274ZM11.9276 12.6815C11.7825 12.7006 11.6349 12.6865 11.4961 12.6401C11.3572 12.5938 11.2308 12.5164 11.1262 12.414C11.0216 12.3115 10.9418 12.1867 10.8926 12.0488C10.8434 11.9109 10.8262 11.7637 10.8424 11.6182L10.909 11.5352C11.4099 11.2247 12.0068 11.1073 12.588 11.2049L12.6397 11.2448C12.7191 11.3822 12.7634 11.5372 12.7684 11.6958C12.7735 11.8544 12.7393 12.0119 12.6688 12.1541C12.5983 12.2963 12.4938 12.4189 12.3645 12.5109C12.2352 12.6029 12.0851 12.6615 11.9276 12.6815Z" fill="#7A3787"/>
</svg>
