<svg width="94" height="94" viewBox="0 0 94 94" fill="none" xmlns="http://www.w3.org/2000/svg">
<g clip-path="url(#clip0_1652_318)">
<path d="M37.382 74.3835C33.4545 74.3835 30.2578 77.5803 30.2578 81.5078C30.2578 85.4371 33.4545 88.6338 37.382 88.6338C41.3095 88.6338 44.5062 85.4371 44.5062 81.5078C44.5062 77.5803 41.3095 74.3835 37.382 74.3835Z" fill="#7A3787"/>
<path d="M56.0133 50.6772C50.4058 47.2749 43.9628 45.4773 37.3821 45.4773C30.7995 45.4773 24.3565 47.2749 18.749 50.6772C16.9 51.7973 15.6918 53.6683 15.4348 55.8092C15.1777 57.9373 15.9011 60.0287 17.4178 61.5453L17.6308 61.7583C18.9326 63.0601 20.6714 63.7762 22.5278 63.7762C23.8112 63.7762 25.08 63.4237 26.1927 62.7572C29.5675 60.7356 33.4362 59.6669 37.3821 59.6669C41.3279 59.6669 45.1967 60.7356 48.5697 62.7572C49.6842 63.4237 50.9511 63.7762 52.2364 63.7762C54.0432 63.7762 55.7398 63.0968 57.0287 61.8611L57.3464 61.5416C58.863 60.0268 59.5865 57.9373 59.3294 55.8111C59.0705 53.6683 57.8623 51.7973 56.0133 50.6772Z" fill="#7A3787"/>
<path d="M60.4286 20.1429C56.9963 19.5136 40.951 16.7712 37.3817 16.7712C24.7326 16.7712 12.7591 20.7832 2.75588 28.3756C1.1511 29.593 0.152238 31.4438 0.0163644 33.4525C-0.121346 35.4539 0.614944 37.4131 2.04162 38.8379L2.26196 39.0619C3.57296 40.3711 5.32463 41.0927 7.19381 41.0927C8.7123 41.0927 10.1445 40.6153 11.338 39.7119C18.8955 33.9868 27.8999 30.9627 37.3817 30.9627C40.6785 30.9627 52.8117 32.7348 55.9524 33.4525C54.9252 28.7114 58.8416 24.7591 60.4286 20.1429Z" fill="#7A3787"/>
<path d="M87.8499 11.5162C79.6501 3.31621 66.3077 3.31621 58.1079 11.5162C49.9081 19.7162 49.9081 33.0585 58.1079 41.2583C62.08 45.2306 67.3612 47.4181 72.9789 47.4181C78.5966 47.4181 83.8778 45.2306 87.8499 41.2583C96.0498 33.0583 96.0498 19.716 87.8499 11.5162ZM79.7799 29.2933C80.8556 30.3689 80.8556 32.1127 79.7799 33.1883C79.2421 33.7261 78.5373 33.9951 77.8325 33.9951C77.1278 33.9951 76.4228 33.7263 75.8851 33.1883L72.9791 30.2822L70.073 33.1883C69.5352 33.7261 68.8303 33.9951 68.1256 33.9951C67.4209 33.9951 66.7158 33.7263 66.1782 33.1883C65.1026 32.1127 65.1026 30.3689 66.1782 29.2933L69.0843 26.3872L66.1782 23.4812C65.1026 22.4056 65.1026 20.6618 66.1782 19.5862C67.2537 18.5106 68.9976 18.5106 70.0732 19.5862L72.9793 22.4923L75.8853 19.5862C76.9607 18.5106 78.7047 18.5106 79.7803 19.5862C80.8559 20.6618 80.8559 22.4056 79.7803 23.4812L76.8743 26.3872L79.7799 29.2933Z" fill="#7A3787"/>
</g>
<defs>
<clipPath id="clip0_1652_318">
<rect width="94" height="94" fill="white"/>
</clipPath>
</defs>
</svg>
