<svg width="32" height="32" viewBox="0 0 32 32" fill="none" xmlns="http://www.w3.org/2000/svg">
<mask id="path-1-inside-1_296_468" fill="white">
<path d="M31.9172 12.3932C31.7091 11.7481 31.1379 11.2899 30.4623 11.2289L21.2843 10.3939L17.6551 1.88297C17.3875 1.25922 16.778 0.855469 16.1009 0.855469C15.4238 0.855469 14.8144 1.25922 14.5468 1.88442L10.9175 10.3939L1.73811 11.2289C1.06365 11.2914 0.494001 11.7481 0.284628 12.3932C0.0752543 13.0384 0.268615 13.746 0.778826 14.192L7.71629 20.288L5.67059 29.3167C5.5209 29.9805 5.77807 30.6667 6.32782 31.0649C6.62332 31.2788 6.96904 31.3877 7.31768 31.3877C7.61827 31.3877 7.91644 31.3065 8.18404 31.1461L16.1009 26.4053L24.0149 31.1461C24.594 31.4951 25.324 31.4633 25.8726 31.0649C26.4226 30.6655 26.6795 29.9791 26.5298 29.3167L24.4841 20.288L31.4216 14.1932C31.9318 13.746 32.1266 13.0396 31.9172 12.3932V12.3932Z"/>
</mask>
<path d="M31.9172 12.3932C31.7091 11.7481 31.1379 11.2899 30.4623 11.2289L21.2843 10.3939L17.6551 1.88297C17.3875 1.25922 16.778 0.855469 16.1009 0.855469C15.4238 0.855469 14.8144 1.25922 14.5468 1.88442L10.9175 10.3939L1.73811 11.2289C1.06365 11.2914 0.494001 11.7481 0.284628 12.3932C0.0752543 13.0384 0.268615 13.746 0.778826 14.192L7.71629 20.288L5.67059 29.3167C5.5209 29.9805 5.77807 30.6667 6.32782 31.0649C6.62332 31.2788 6.96904 31.3877 7.31768 31.3877C7.61827 31.3877 7.91644 31.3065 8.18404 31.1461L16.1009 26.4053L24.0149 31.1461C24.594 31.4951 25.324 31.4633 25.8726 31.0649C26.4226 30.6655 26.6795 29.9791 26.5298 29.3167L24.4841 20.288L31.4216 14.1932C31.9318 13.746 32.1266 13.0396 31.9172 12.3932V12.3932Z" stroke="#FFC736" stroke-width="2" mask="url(#path-1-inside-1_296_468)"/>
</svg>
