<svg width="18" height="20" viewBox="0 0 18 20" fill="none" xmlns="http://www.w3.org/2000/svg">
<mask id="path-1-outside-1_249_110" maskUnits="userSpaceOnUse" x="0.313232" y="0.00280762" width="17" height="20" fill="black">
<rect fill="white" x="0.313232" y="0.00280762" width="17" height="20"/>
<path d="M9.02246 2.35703C11.0861 3.04046 13.2043 3.84519 15.0155 4.54761C15.1414 5.37203 15.314 6.78601 15.3471 8.49531C15.3763 10.4423 15.2152 11.5163 15.1439 11.8907C14.9945 12.4064 14.6809 12.9668 14.2119 13.5561C13.6557 14.2543 12.8984 14.9802 11.9612 15.7132C11.9605 15.7136 11.9598 15.7143 11.9594 15.7146C10.6273 16.7602 9.39406 17.4341 9.02246 17.6282C8.65086 17.4345 7.41899 16.762 6.08762 15.7171L6.08586 15.7157C5.14895 14.983 4.39203 14.2574 3.83692 13.5596C3.39149 12.9995 3.08633 12.4652 2.92883 11.9712C2.92461 11.9547 2.92004 11.9382 2.91477 11.9213C2.84445 11.6833 2.6184 10.7246 2.6525 8.36488C2.68977 6.8616 2.82758 5.51863 3.04274 4.53847C4.84836 3.83921 6.9602 3.038 9.02246 2.35667M9.02246 1.00281C8.91664 1.00281 8.81047 1.01968 8.70746 1.05378C6.68563 1.71824 4.61176 2.49765 2.50274 3.31468C2.21902 3.42472 1.98102 3.62828 1.82633 3.87578C1.83828 3.87718 1.39285 5.26761 1.31692 8.33851C1.27192 11.4098 1.65442 12.3298 1.64176 12.3309C1.84883 13.0059 2.23625 13.6925 2.79137 14.3907C3.41188 15.1704 4.25035 15.9759 5.2632 16.7676C6.93981 18.0835 8.50883 18.8699 8.57457 18.8977C8.7166 18.9673 8.86742 19.0025 9.02281 19.0025H9.02317C9.17891 19.0025 9.32973 18.967 9.47176 18.897C9.53785 18.8692 11.1086 18.0803 12.7845 16.7648C13.7977 15.9723 14.6362 15.1669 15.2571 14.3875C15.8519 13.6397 16.2541 12.906 16.4485 12.1853C16.4408 12.1843 16.722 11.0564 16.683 8.47211C16.6334 5.88812 16.2734 3.9823 16.2784 3.98054C16.1286 3.68839 15.866 3.44406 15.5447 3.31925C13.4353 2.50187 11.3611 1.72105 9.33887 1.05449C9.23516 1.02039 9.12899 1.00316 9.02281 1.00316L9.02246 1.00281Z"/>
</mask>
<path d="M9.02246 2.35703C11.0861 3.04046 13.2043 3.84519 15.0155 4.54761C15.1414 5.37203 15.314 6.78601 15.3471 8.49531C15.3763 10.4423 15.2152 11.5163 15.1439 11.8907C14.9945 12.4064 14.6809 12.9668 14.2119 13.5561C13.6557 14.2543 12.8984 14.9802 11.9612 15.7132C11.9605 15.7136 11.9598 15.7143 11.9594 15.7146C10.6273 16.7602 9.39406 17.4341 9.02246 17.6282C8.65086 17.4345 7.41899 16.762 6.08762 15.7171L6.08586 15.7157C5.14895 14.983 4.39203 14.2574 3.83692 13.5596C3.39149 12.9995 3.08633 12.4652 2.92883 11.9712C2.92461 11.9547 2.92004 11.9382 2.91477 11.9213C2.84445 11.6833 2.6184 10.7246 2.6525 8.36488C2.68977 6.8616 2.82758 5.51863 3.04274 4.53847C4.84836 3.83921 6.9602 3.038 9.02246 2.35667M9.02246 1.00281C8.91664 1.00281 8.81047 1.01968 8.70746 1.05378C6.68563 1.71824 4.61176 2.49765 2.50274 3.31468C2.21902 3.42472 1.98102 3.62828 1.82633 3.87578C1.83828 3.87718 1.39285 5.26761 1.31692 8.33851C1.27192 11.4098 1.65442 12.3298 1.64176 12.3309C1.84883 13.0059 2.23625 13.6925 2.79137 14.3907C3.41188 15.1704 4.25035 15.9759 5.2632 16.7676C6.93981 18.0835 8.50883 18.8699 8.57457 18.8977C8.7166 18.9673 8.86742 19.0025 9.02281 19.0025H9.02317C9.17891 19.0025 9.32973 18.967 9.47176 18.897C9.53785 18.8692 11.1086 18.0803 12.7845 16.7648C13.7977 15.9723 14.6362 15.1669 15.2571 14.3875C15.8519 13.6397 16.2541 12.906 16.4485 12.1853C16.4408 12.1843 16.722 11.0564 16.683 8.47211C16.6334 5.88812 16.2734 3.9823 16.2784 3.98054C16.1286 3.68839 15.866 3.44406 15.5447 3.31925C13.4353 2.50187 11.3611 1.72105 9.33887 1.05449C9.23516 1.02039 9.12899 1.00316 9.02281 1.00316L9.02246 1.00281Z" fill="black"/>
<path d="M15.0155 4.54761L15.3121 4.50234L15.2859 4.33069L15.124 4.26791L15.0155 4.54761ZM15.3471 8.49531L15.647 8.49081L15.647 8.48951L15.3471 8.49531ZM15.1439 11.8907L15.432 11.9742L15.4359 11.9607L15.4386 11.9469L15.1439 11.8907ZM14.2119 13.5561L14.4465 13.743L14.4466 13.7429L14.2119 13.5561ZM11.9612 15.7132L12.0953 15.9816L12.1223 15.9681L12.146 15.9496L11.9612 15.7132ZM11.9594 15.7146L12.1446 15.9506L12.1588 15.9395L12.1715 15.9268L11.9594 15.7146ZM9.02246 17.6282L8.88379 17.8942L9.02259 17.9666L9.16134 17.8941L9.02246 17.6282ZM6.08762 15.7171L5.90019 15.9514L5.90241 15.9531L6.08762 15.7171ZM6.08586 15.7157L6.2733 15.4814L6.27066 15.4794L6.08586 15.7157ZM3.83692 13.5596L3.60212 13.7463L3.60214 13.7463L3.83692 13.5596ZM2.92883 11.9712L2.63815 12.0454L2.64033 12.054L2.64301 12.0623L2.92883 11.9712ZM2.91477 11.9213L2.62702 12.0063L2.62842 12.0108L2.91477 11.9213ZM2.6525 8.36488L2.35258 8.35744L2.35253 8.36054L2.6525 8.36488ZM3.04274 4.53847L2.9344 4.25872L2.78424 4.31687L2.74971 4.47415L3.04274 4.53847ZM9.02246 1.00281L9.23482 0.790896L9.14691 0.702808H9.02246V1.00281ZM8.70746 1.05378L8.80113 1.33879L8.80175 1.33858L8.70746 1.05378ZM2.50274 3.31468L2.39436 3.03494L2.39425 3.03498L2.50274 3.31468ZM1.82633 3.87578L1.57193 3.71678L1.32092 4.11839L1.79128 4.17372L1.82633 3.87578ZM1.31692 8.33851L1.01699 8.3311L1.01695 8.33412L1.31692 8.33851ZM1.64176 12.3309L1.61685 12.0319L1.24573 12.0628L1.35495 12.4188L1.64176 12.3309ZM2.79137 14.3907L2.55654 14.5774L2.55662 14.5775L2.79137 14.3907ZM5.2632 16.7676L5.44843 16.5316L5.44796 16.5312L5.2632 16.7676ZM8.57457 18.8977L8.7066 18.6283L8.69906 18.6246L8.69132 18.6213L8.57457 18.8977ZM9.47176 18.897L9.35554 18.6204L9.34726 18.6239L9.3392 18.6279L9.47176 18.897ZM12.7845 16.7648L12.5997 16.5285L12.5993 16.5288L12.7845 16.7648ZM15.2571 14.3875L15.4917 14.5744L15.4918 14.5743L15.2571 14.3875ZM16.4485 12.1853L16.7382 12.2634L16.827 11.9341L16.4891 11.8881L16.4485 12.1853ZM16.683 8.47211L16.983 8.46758L16.983 8.46635L16.683 8.47211ZM16.2784 3.98054L16.3793 4.26306L16.7013 4.14803L16.5453 3.84369L16.2784 3.98054ZM15.5447 3.31925L15.6533 3.03961L15.653 3.03952L15.5447 3.31925ZM9.33887 1.05449L9.43279 0.769567L9.43258 0.769498L9.33887 1.05449ZM9.02281 1.00316L8.81046 1.21507L8.89837 1.30316H9.02281V1.00316ZM8.92815 2.64182C10.9843 3.32276 13.0966 4.1252 14.9071 4.82732L15.124 4.26791C13.312 3.56518 11.188 2.75817 9.11678 2.07224L8.92815 2.64182ZM14.719 4.59289C14.8434 5.40774 15.0144 6.80816 15.0471 8.50111L15.647 8.48951C15.6137 6.76386 15.4394 5.33631 15.3121 4.50234L14.719 4.59289ZM15.0471 8.4998C15.076 10.4286 14.9163 11.4822 14.8492 11.8345L15.4386 11.9469C15.5141 11.5504 15.6765 10.4559 15.647 8.49081L15.0471 8.4998ZM14.8557 11.8072C14.7206 12.2735 14.4309 12.7992 13.9772 13.3692L14.4466 13.7429C14.9309 13.1345 15.2683 12.5394 15.432 11.9742L14.8557 11.8072ZM13.9772 13.3691C13.4396 14.0441 12.7008 14.7539 11.7764 15.4769L12.146 15.9496C13.0961 15.2065 13.8718 14.4644 14.4465 13.743L13.9772 13.3691ZM11.827 15.4449C11.795 15.4609 11.7733 15.479 11.7651 15.486C11.755 15.4946 11.7475 15.5023 11.7473 15.5025L12.1715 15.9268C12.1717 15.9266 12.1647 15.9338 12.1553 15.9418C12.1503 15.9461 12.1432 15.9519 12.1342 15.9583C12.1254 15.9645 12.1123 15.9731 12.0953 15.9816L11.827 15.4449ZM11.7742 15.4787C10.4618 16.5088 9.2459 17.1731 8.88359 17.3623L9.16134 17.8941C9.54223 17.6952 10.7929 17.0116 12.1446 15.9506L11.7742 15.4787ZM9.16114 17.3622C8.79894 17.1734 7.58453 16.5105 6.27283 15.4811L5.90241 15.9531C7.25344 17.0134 8.50278 17.6956 8.88379 17.8942L9.16114 17.3622ZM6.27504 15.4829L6.27329 15.4815L5.89844 15.9499L5.90019 15.9514L6.27504 15.4829ZM6.27066 15.4794C5.34654 14.7567 4.60822 14.0473 4.07169 13.3728L3.60214 13.7463C4.17585 14.4676 4.95135 15.2094 5.90106 15.952L6.27066 15.4794ZM4.07171 13.3728C3.64104 12.8314 3.35779 12.329 3.21465 11.8801L2.64301 12.0623C2.81487 12.6013 3.14193 13.1677 3.60212 13.7463L4.07171 13.3728ZM3.2195 11.897C3.2143 11.8766 3.2083 11.8548 3.20111 11.8318L2.62842 12.0108C2.63178 12.0215 2.63493 12.0328 2.63815 12.0454L3.2195 11.897ZM3.20247 11.8363C3.1437 11.6373 2.91862 10.7114 2.95247 8.36921L2.35253 8.36054C2.31818 10.7378 2.54521 11.7292 2.62706 12.0063L3.20247 11.8363ZM2.95241 8.37231C2.9894 6.87996 3.12616 5.55765 3.33576 4.60279L2.74971 4.47415C2.529 5.47961 2.39013 6.84324 2.35259 8.35744L2.95241 8.37231ZM3.15108 4.81823C4.95591 4.11927 7.06188 3.32036 9.11657 2.64153L8.92835 2.07182C6.85851 2.75565 4.74081 3.55916 2.9344 4.25872L3.15108 4.81823ZM9.02246 0.702808C8.88465 0.702808 8.74665 0.724799 8.61318 0.768985L8.80175 1.33858C8.87429 1.31457 8.94863 1.30281 9.02246 1.30281V0.702808ZM8.6138 0.76878C6.58434 1.43574 4.5046 2.21744 2.39436 3.03494L2.61111 3.59442C4.71891 2.77786 6.78692 2.00073 8.80113 1.33879L8.6138 0.76878ZM2.39425 3.03498C2.04806 3.16926 1.75975 3.41627 1.57193 3.71678L2.08073 4.03478C2.20229 3.84028 2.38998 3.68019 2.61122 3.59438L2.39425 3.03498ZM1.79128 4.17372C1.6855 4.16128 1.61532 4.09854 1.57888 4.04529C1.54735 3.99923 1.53677 3.95601 1.53293 3.93772C1.52493 3.89961 1.52659 3.86902 1.5269 3.86259C1.52783 3.84295 1.53064 3.82818 1.53082 3.82718C1.53196 3.82079 1.53282 3.81768 1.53159 3.82283C1.5296 3.83117 1.52617 3.84465 1.52017 3.86832C1.50877 3.91332 1.49148 3.98205 1.47016 4.07427C1.42753 4.25871 1.3693 4.53505 1.3085 4.90778C1.1869 5.65317 1.05531 6.78217 1.01701 8.3311L1.61682 8.34593C1.65446 6.82396 1.78355 5.72229 1.90067 5.00439C1.95922 4.64548 2.01485 4.38201 2.05475 4.20939C2.0747 4.12307 2.09083 4.05895 2.1018 4.01565C2.10699 3.99517 2.11198 3.97563 2.11524 3.96194C2.11663 3.95609 2.11932 3.94471 2.12145 3.93279C2.12212 3.92903 2.12522 3.91217 2.12622 3.89114C2.12656 3.884 2.1282 3.85288 2.12012 3.81441C2.11624 3.79594 2.10561 3.75258 2.07402 3.70642C2.03751 3.65307 1.96725 3.59029 1.86138 3.57783L1.79128 4.17372ZM1.01695 8.33412C0.994263 9.88231 1.07919 10.8962 1.17027 11.5288C1.21585 11.8453 1.26296 12.0663 1.29886 12.2108C1.31684 12.2832 1.33176 12.3354 1.3417 12.3693C1.34734 12.3886 1.34929 12.395 1.35064 12.3998C1.35169 12.4037 1.34924 12.3955 1.34699 12.3835C1.34653 12.3811 1.34157 12.3567 1.34211 12.3251C1.34232 12.3126 1.34324 12.267 1.36556 12.2141C1.39266 12.1498 1.46948 12.0442 1.61685 12.0319L1.66667 12.6298C1.81424 12.6175 1.8912 12.5117 1.91841 12.4472C1.94083 12.3941 1.9418 12.3481 1.94202 12.3352C1.94257 12.3026 1.93745 12.2769 1.93663 12.2725C1.93368 12.2568 1.92981 12.2431 1.92877 12.2393C1.92592 12.2291 1.921 12.2126 1.91748 12.2006C1.9091 12.172 1.89657 12.1282 1.88117 12.0662C1.85031 11.942 1.80698 11.7408 1.76415 11.4433C1.67839 10.8477 1.59457 9.86597 1.61688 8.34291L1.01695 8.33412ZM1.35495 12.4188C1.57587 13.139 1.98498 13.8585 2.55654 14.5774L3.02619 14.204C2.48752 13.5264 2.12179 12.8727 1.92857 12.2429L1.35495 12.4188ZM2.55662 14.5775C3.19539 15.3802 4.05224 16.2018 5.07845 17.0039L5.44796 16.5312C4.44847 15.7499 3.62836 14.9607 3.02611 14.2039L2.55662 14.5775ZM5.07798 17.0036C6.77354 18.3343 8.36536 19.135 8.45782 19.174L8.69132 18.6213C8.69507 18.6229 8.67385 18.6131 8.61837 18.5849C8.56803 18.5592 8.49678 18.5221 8.40733 18.474C8.22847 18.3778 7.97772 18.238 7.67686 18.0582C7.07471 17.6983 6.27435 17.1798 5.44843 16.5316L5.07798 17.0036ZM8.44255 19.1671C8.62508 19.2565 8.821 19.3025 9.02281 19.3025V18.7025C8.91385 18.7025 8.80813 18.6781 8.7066 18.6283L8.44255 19.1671ZM9.02281 19.3025H9.02317V18.7025H9.02281V19.3025ZM9.02317 19.3025C9.22576 19.3025 9.42185 19.256 9.60432 19.1661L9.3392 18.6279C9.23761 18.6779 9.13206 18.7025 9.02317 18.7025V19.3025ZM9.58798 19.1736C9.68147 19.1343 11.2752 18.3309 12.9698 17.0007L12.5993 16.5288C11.7737 17.1769 10.973 17.6959 10.3705 18.0563C10.0694 18.2364 9.81841 18.3765 9.63934 18.473C9.54979 18.5212 9.47845 18.5584 9.42805 18.5841C9.37227 18.6125 9.3514 18.6222 9.35554 18.6204L9.58798 19.1736ZM12.9694 17.0011C13.9959 16.1982 14.8527 15.3767 15.4917 14.5744L15.0224 14.2006C14.4198 14.9571 13.5996 15.7464 12.5997 16.5285L12.9694 17.0011ZM15.4918 14.5743C16.1042 13.8045 16.5302 13.0346 16.7382 12.2634L16.1589 12.1072C15.9781 12.7775 15.5997 13.4749 15.0223 14.2007L15.4918 14.5743ZM16.4891 11.8881C16.6192 11.9058 16.6863 11.9956 16.7106 12.0394C16.7343 12.082 16.7416 12.1199 16.7439 12.1336C16.7493 12.1644 16.7484 12.1889 16.7482 12.1939C16.7477 12.2096 16.746 12.2214 16.7459 12.2222C16.7452 12.2273 16.7447 12.2297 16.7455 12.2254C16.7468 12.2183 16.7489 12.2075 16.7526 12.1877C16.7597 12.1505 16.7704 12.094 16.7832 12.018C16.8088 11.866 16.8429 11.6381 16.8758 11.3292C16.9416 10.7115 17.0027 9.77134 16.983 8.46758L16.383 8.47663C16.4024 9.7572 16.3423 10.6731 16.2792 11.2657C16.2476 11.5619 16.2153 11.7777 16.1916 11.9182C16.1797 11.9884 16.1699 12.0404 16.1633 12.0752C16.1602 12.0914 16.1571 12.1075 16.1551 12.1182C16.1543 12.1229 16.1526 12.132 16.1513 12.1416C16.1509 12.1446 16.149 12.1582 16.1485 12.175C16.1483 12.1805 16.1474 12.2055 16.1528 12.2366C16.1552 12.2504 16.1625 12.2884 16.1863 12.3311C16.2107 12.3749 16.2778 12.4648 16.408 12.4826L16.4891 11.8881ZM16.983 8.46635C16.9579 7.1622 16.8546 6.02954 16.7581 5.22238C16.7099 4.81865 16.6633 4.49609 16.629 4.27397C16.6119 4.1629 16.5979 4.07708 16.5883 4.01917C16.5834 3.98969 16.58 3.969 16.5777 3.95492C16.5771 3.95155 16.5767 3.94888 16.5764 3.9468C16.5762 3.94578 16.5761 3.94498 16.576 3.94438C16.576 3.94409 16.5759 3.94386 16.5759 3.9437C16.5759 3.94354 16.5759 3.94346 16.5759 3.94347C16.5759 3.94347 16.5759 3.94358 16.5759 3.9438C16.576 3.94401 16.576 3.94438 16.5761 3.94489C16.5762 3.94565 16.5765 3.94793 16.5768 3.95109C16.5769 3.95251 16.5779 3.96179 16.5782 3.97388C16.5783 3.97806 16.5788 3.99564 16.576 4.01794C16.5741 4.03099 16.5659 4.06589 16.5587 4.08731C16.5402 4.12688 16.4549 4.22308 16.3793 4.26306L16.1775 3.69802C16.1018 3.73801 16.0164 3.83423 15.998 3.87384C15.9907 3.8953 15.9826 3.93024 15.9806 3.94336C15.9778 3.96579 15.9783 3.98356 15.9784 3.98798C15.9787 4.00056 15.9797 4.01056 15.98 4.01294C15.9807 4.02011 15.9816 4.0264 15.982 4.02903C15.983 4.0356 15.9842 4.04344 15.9854 4.05085C15.9879 4.06615 15.9917 4.0891 15.9963 4.11695C16.0057 4.17369 16.0194 4.25724 16.036 4.36546C16.0694 4.58193 16.115 4.89765 16.1624 5.29359C16.2571 6.08578 16.3585 7.19802 16.3831 8.47786L16.983 8.46635ZM16.5453 3.84369C16.3628 3.48767 16.0447 3.19162 15.6533 3.03961L15.436 3.5989C15.6873 3.69649 15.8944 3.88911 16.0114 4.1174L16.5453 3.84369ZM15.653 3.03952C13.5425 2.2217 11.4625 1.43862 9.43279 0.769567L9.24495 1.33941C11.2596 2.00348 13.328 2.78204 15.4363 3.59899L15.653 3.03952ZM9.43258 0.769498C9.29945 0.725723 9.16167 0.703159 9.02281 0.703159V1.30316C9.0963 1.30316 9.17087 1.31505 9.24516 1.33948L9.43258 0.769498ZM9.23517 0.791248L9.23482 0.790896L8.81011 1.21472L8.81046 1.21507L9.23517 0.791248Z" fill="black" mask="url(#path-1-outside-1_249_110)"/>
<path d="M8.97496 8.07999C8.50329 8.09328 8.12339 8.48139 8.12339 8.9562C8.12339 9.29147 8.3097 9.59212 8.61107 9.74191L8.97496 8.07999ZM8.97496 8.07999H8.9996C9.23394 8.07999 9.45351 8.171 9.61951 8.33664C9.78516 8.50264 9.87616 8.72222 9.87616 8.95656L9.87616 8.95669C9.87646 9.2813 9.69812 9.57785 9.41034 9.73121C9.22083 9.8321 9.0819 10.0014 9.01726 10.1992C8.94728 10.0033 8.80378 9.83767 8.61109 9.74192L8.97496 8.07999ZM7.8958 13.0964C8.16051 13.3615 8.50289 13.5215 8.8714 13.5557V13.5631L9.02153 13.563C9.44614 13.5626 9.84637 13.3971 10.147 13.0964C10.4477 12.7961 10.6132 12.3958 10.6132 11.9709V10.8832C11.1773 10.4114 11.5125 9.7101 11.5125 8.95656C11.5125 8.28568 11.2505 7.6541 10.7763 7.17986C10.302 6.70559 9.67042 6.44406 8.9996 6.44406H8.99956C7.61419 6.44443 6.48745 7.57155 6.48745 8.95691L6.48745 8.95698C6.48781 9.7339 6.83863 10.4478 7.42929 10.9184V11.9709C7.42929 12.3956 7.59525 12.7959 7.8958 13.0964ZM8.97686 11.9709C8.97686 11.9707 8.97687 11.9706 8.97687 11.9705L8.97686 11.9709Z" fill="black" stroke="black" stroke-width="0.3"/>
</svg>
