<svg width="14" height="18" viewBox="0 0 14 18" fill="none" xmlns="http://www.w3.org/2000/svg">
<path d="M1.75 18H0V16.285C0.0134554 15.1371 0.481577 14.0414 1.30171 13.2381C2.12185 12.4348 3.22707 11.9896 4.375 12H9.625C10.7729 11.9896 11.8781 12.4348 12.6983 13.2381C13.5184 14.0414 13.9865 15.1371 14 16.285V18H12.25V16.285C12.2423 15.5961 11.9616 14.9384 11.4694 14.4564C10.9773 13.9743 10.3139 13.7073 9.625 13.714H4.375C3.68611 13.7073 3.02274 13.9743 2.53057 14.4564C2.03839 14.9384 1.75765 15.5961 1.75 16.285V18ZM7 10.285C6.08432 10.287 5.18383 10.0511 4.38674 9.60039C3.58965 9.1497 2.92331 8.49967 2.453 7.714C1.99434 6.93465 1.75247 6.0468 1.75247 5.1425C1.75247 4.2382 1.99434 3.35035 2.453 2.571C2.92339 1.78539 3.58974 1.13542 4.38681 0.684737C5.18388 0.234052 6.08434 -0.00189641 7 -4.3551e-07C8.37794 -0.0133326 9.70484 0.520826 10.6892 1.48514C11.6736 2.44946 12.235 3.76507 12.25 5.143C12.2347 6.52075 11.6732 7.83611 10.6889 8.80021C9.70452 9.76431 8.37777 10.2983 7 10.285ZM7 1.714C6.0815 1.70573 5.19721 2.06208 4.54108 2.7049C3.88495 3.34772 3.51055 4.22452 3.5 5.143C3.5 6.07126 3.86875 6.9615 4.52513 7.61787C5.1815 8.27425 6.07174 8.643 7 8.643C7.92826 8.643 8.8185 8.27425 9.47487 7.61787C10.1313 6.9615 10.5 6.07126 10.5 5.143C10.4894 4.22452 10.115 3.34772 9.45892 2.7049C8.80279 2.06208 7.9185 1.70573 7 1.714Z" fill="#161615"/>
</svg>
