<svg width="11" height="11" viewBox="0 0 11 11" fill="none" xmlns="http://www.w3.org/2000/svg">
<g clip-path="url(#clip0_289_778)">
<path d="M1.04275 10.9313C0.773058 10.947 0.507829 10.8573 0.302989 10.6812C-0.100996 10.2748 -0.100996 9.61849 0.302989 9.2121L9.14894 0.366116C9.56912 -0.0270607 10.2285 -0.00520425 10.6216 0.414976C10.9772 0.794943 10.9979 1.37896 10.6701 1.78315L1.77208 10.6812C1.56988 10.8548 1.3089 10.9443 1.04275 10.9313Z" fill="white"/>
<path d="M9.87813 10.9313C9.6048 10.9301 9.34283 10.8216 9.14877 10.6292L0.302783 1.78314C-0.0714886 1.34608 -0.0206044 0.688326 0.416457 0.31402C0.806546 -0.0200379 1.38185 -0.0200379 1.7719 0.31402L10.67 9.16C11.0901 9.55328 11.1118 10.2127 10.7185 10.6327C10.7028 10.6494 10.6867 10.6656 10.67 10.6812C10.4521 10.8707 10.1654 10.9613 9.87813 10.9313Z" fill="white"/>
</g>
<defs>
<clipPath id="clip0_289_778">
<rect width="11" height="11" fill="white"/>
</clipPath>
</defs>
</svg>
