<svg width="9" height="9" viewBox="0 0 9 9" fill="none" xmlns="http://www.w3.org/2000/svg">
<g clip-path="url(#clip0_10_77)">
<path d="M8.97654 3.27421C8.91762 3.09162 8.75598 2.96193 8.56475 2.94466L5.9671 2.70834L4.93992 0.29948C4.86418 0.122942 4.69169 0.00866699 4.50005 0.00866699C4.3084 0.00866699 4.13591 0.122942 4.06017 0.299893L3.03299 2.70834L0.434931 2.94466C0.244039 2.96234 0.0828104 3.09162 0.0235514 3.27421C-0.0357076 3.4568 0.0190194 3.65707 0.163425 3.78332L2.12694 5.50866L1.54794 8.06406C1.50558 8.25195 1.57836 8.44617 1.73396 8.55886C1.8176 8.6194 1.91545 8.65022 2.01412 8.65022C2.0992 8.65022 2.18359 8.62725 2.25933 8.58184L4.50005 7.24005L6.73994 8.58184C6.90385 8.68063 7.11046 8.67162 7.26572 8.55886C7.42139 8.44582 7.4941 8.25153 7.45174 8.06406L6.87274 5.50866L8.83625 3.78366C8.98066 3.65707 9.0358 3.45714 8.97654 3.27421Z" fill="#FFC736"/>
</g>
<defs>
<clipPath id="clip0_10_77">
<rect width="9" height="9" fill="white"/>
</clipPath>
</defs>
</svg>
