<svg width="20" height="20" viewBox="0 0 20 20" fill="none" xmlns="http://www.w3.org/2000/svg">
<path d="M9.02787 0.770386C4.48238 0.770386 0.779663 4.4731 0.779663 9.01861C0.779663 13.5641 4.48238 17.274 9.02787 17.274C10.9694 17.274 12.755 16.5936 14.1662 15.4639L17.6019 18.8978C17.7753 19.064 18.0069 19.1557 18.2471 19.1533C18.4872 19.1508 18.7169 19.0544 18.8868 18.8847C19.0568 18.715 19.1535 18.4855 19.1563 18.2454C19.1591 18.0052 19.0677 17.7735 18.9017 17.5999L15.466 14.1642C16.5967 12.7508 17.2779 10.9624 17.2779 9.01861C17.2779 4.4731 13.5734 0.770386 9.02787 0.770386ZM9.02787 2.60375C12.5826 2.60375 15.4427 5.46393 15.4427 9.01861C15.4427 12.5733 12.5826 15.4407 9.02787 15.4407C5.47319 15.4407 2.613 12.5733 2.613 9.01861C2.613 5.46393 5.47319 2.60375 9.02787 2.60375Z" fill="#7A3787"/>
</svg>
