<svg width="19" height="19" viewBox="0 0 19 19" fill="none" xmlns="http://www.w3.org/2000/svg">
<path d="M18.9505 6.89392C18.8261 6.50845 18.4849 6.23467 18.0811 6.19821L12.5972 5.6993L10.4287 0.613939C10.2688 0.241247 9.90469 0 9.5001 0C9.09551 0 8.73136 0.241247 8.57147 0.61481L6.40298 5.6993L0.918188 6.19821C0.515193 6.23554 0.174822 6.50845 0.0497196 6.89392C-0.0753828 7.27939 0.0401521 7.70219 0.345008 7.96871L4.4902 11.6111L3.26788 17.0058C3.17844 17.4025 3.3321 17.8125 3.66058 18.0504C3.83715 18.1782 4.04372 18.2433 4.25203 18.2433C4.43164 18.2433 4.6098 18.1948 4.76969 18.0989L9.5001 15.2663L14.2288 18.0989C14.5748 18.3075 15.011 18.2885 15.3387 18.0504C15.6674 17.8118 15.8209 17.4016 15.7314 17.0058L14.5091 11.6111L18.6543 7.96944C18.9592 7.70219 19.0756 7.28012 18.9505 6.89392Z" fill="#FFC736"/>
</svg>
