<svg width="28" height="28" viewBox="0 0 28 28" fill="none" xmlns="http://www.w3.org/2000/svg">
<circle cx="14" cy="14" r="14" fill="#7A3787"/>
<path d="M6.3744 9.2146H9.98895C10.0907 9.2146 10.1914 9.23463 10.2853 9.27356C10.3793 9.31248 10.4647 9.36953 10.5366 9.44145C10.6085 9.51337 10.6656 9.59876 10.7045 9.69273C10.7434 9.7867 10.7635 9.88741 10.7635 9.98913V12.829C10.7635 13.0345 10.6819 13.2315 10.5366 13.3767C10.3914 13.522 10.1944 13.6036 9.98893 13.6036H6.37438C6.16896 13.6036 5.97196 13.522 5.82671 13.3767C5.68146 13.2315 5.59985 13.0345 5.59985 12.8291V9.98915C5.59985 9.88743 5.61989 9.78671 5.65881 9.69274C5.69774 9.59877 5.75479 9.51338 5.82671 9.44146C5.89864 9.36954 5.98402 9.31249 6.07799 9.27356C6.17196 9.23464 6.27268 9.2146 6.3744 9.2146V9.2146Z" fill="white"/>
<path d="M13.862 8.18171C14.5749 8.18171 15.1528 7.6038 15.1528 6.8909C15.1528 6.17801 14.5749 5.6001 13.862 5.6001C13.1491 5.6001 12.5712 6.17801 12.5712 6.8909C12.5712 7.6038 13.1491 8.18171 13.862 8.18171Z" fill="white"/>
<path d="M8.44019 14.3397C8.44026 14.7406 8.59789 15.1253 8.87908 15.411H13.076V14.3383C13.076 14.2702 13.0489 14.2048 13.0007 14.1566C12.9525 14.1084 12.8871 14.0813 12.8189 14.0813H8.69723C8.62892 14.0816 8.56352 14.109 8.51534 14.1574C8.46716 14.2059 8.44014 14.2714 8.44019 14.3397Z" fill="white"/>
<path d="M21.2802 18.3429C21.1543 17.8774 20.872 17.4695 20.4807 17.1877C20.0894 16.9059 19.6131 16.7674 19.1318 16.7955C19.1722 16.6447 19.1931 16.4893 19.1938 16.3332C19.1889 16.0856 19.124 15.843 19.0047 15.626C18.8854 15.4091 18.7152 15.2244 18.5087 15.0877C17.9543 14.72 17.5398 13.7847 17.4772 12.8009H17.9716C18.176 12.801 18.3721 12.72 18.5169 12.5757C18.6617 12.4313 18.7433 12.2355 18.7439 12.0311V11.5184C18.7433 11.314 18.6617 11.1181 18.5169 10.9738C18.3721 10.8295 18.176 10.7485 17.9716 10.7486H16.2059C14.7131 10.3187 14.264 9.8236 13.9956 9.52696C13.9901 9.52091 13.9847 9.51486 13.9794 9.50894C14.0062 9.31101 13.9703 9.10966 13.8769 8.93312C13.7835 8.75658 13.6372 8.6137 13.4585 8.52451C13.3309 8.46361 13.1912 8.43229 13.0498 8.43287C12.9084 8.43345 12.769 8.46593 12.6419 8.52789C12.5148 8.58984 12.4034 8.67967 12.3158 8.79069C12.2283 8.9017 12.1669 9.03104 12.1363 9.16907L11.3955 12.7085C11.3737 12.8137 11.3741 12.9222 11.3967 13.0272C11.4193 13.1321 11.4636 13.2312 11.5268 13.318C11.59 13.4049 11.6706 13.4775 11.7635 13.5313C11.8564 13.5852 11.9596 13.619 12.0663 13.6305L13.3355 13.771C13.401 13.7779 13.4612 13.8097 13.5039 13.8598C13.5465 13.9099 13.5683 13.9744 13.5647 14.0401L13.3647 17.4235C13.1571 17.2421 13.0095 17.0019 12.9414 16.7348C12.8733 16.4676 12.888 16.1861 12.9834 15.9274H9.0373C8.62105 16.6169 7.9548 17.9097 8.22437 18.7507C8.27463 18.909 8.36196 19.0529 8.47909 19.1706C8.59623 19.2883 8.73978 19.3764 8.89781 19.4274C9.01386 19.4629 9.13558 19.4761 9.25654 19.4663C9.28584 19.8839 9.4724 20.2748 9.77857 20.5603C10.0848 20.8457 10.4878 21.0044 10.9064 21.0044C11.325 21.0044 11.728 20.8457 12.0341 20.5602C12.3403 20.2748 12.5269 19.8839 12.5561 19.4663L16.981 19.4662C17.024 19.4639 17.0661 19.453 17.1049 19.4342C17.1436 19.4155 17.1783 19.3893 17.2069 19.357C17.2382 19.5095 17.2892 19.6573 17.3584 19.7968C17.3778 19.8374 17.4075 19.8722 17.4446 19.8977C17.4816 19.9232 17.5247 19.9386 17.5696 19.9422C17.6144 19.9458 17.6594 19.9376 17.7001 19.9184C17.7408 19.8992 17.7757 19.8696 17.8014 19.8327C17.8314 19.7895 17.864 19.7474 17.8984 19.7059C17.9327 19.9289 18.0123 20.1424 18.1323 20.3334C18.2522 20.5244 18.41 20.6888 18.596 20.8165C18.7819 20.9442 18.992 21.0324 19.2133 21.0759C19.4346 21.1193 19.6625 21.1169 19.8829 21.069C20.1033 21.021 20.3115 20.9284 20.4948 20.7969C20.678 20.6654 20.8324 20.4978 20.9484 20.3044C21.0645 20.111 21.1397 19.8959 21.1694 19.6723C21.1991 19.4487 21.1828 19.2214 21.1213 19.0044C21.1879 18.9971 21.249 18.9639 21.2912 18.912C21.3335 18.86 21.3535 18.7935 21.3471 18.7269C21.3373 18.597 21.3149 18.4684 21.2802 18.3429ZM10.9063 20.4904C10.6242 20.4903 10.3522 20.3856 10.1431 20.1963C9.93395 20.0071 9.80254 19.747 9.77438 19.4663L12.0383 19.4663C12.0101 19.7469 11.8787 20.0071 11.6695 20.1963C11.4603 20.3856 11.1883 20.4903 10.9063 20.4904ZM15.9113 17.6703H14.9084L15.3518 13.4779C15.3696 13.3081 15.3303 13.1372 15.2403 12.9921C15.1503 12.8471 15.0147 12.736 14.8546 12.6765L13.5896 12.2044C13.5314 12.1828 13.4831 12.1409 13.4536 12.0863C13.424 12.0318 13.4153 11.9684 13.429 11.9079L13.6215 11.0779C14.2796 11.6027 15.0742 11.9281 15.9113 12.0156V17.6703ZM19.6769 20.5666C19.5056 20.5891 19.3314 20.5724 19.1676 20.5177C19.0037 20.463 18.8544 20.3718 18.731 20.2509C18.6076 20.13 18.5133 19.9826 18.4553 19.8199C18.3973 19.6571 18.377 19.4834 18.396 19.3117L18.4747 19.2138C19.0659 18.8473 19.7703 18.7087 20.4562 18.824L20.5172 18.8711C20.611 19.0332 20.6631 19.2161 20.6691 19.4033C20.6751 19.5905 20.6347 19.7763 20.5516 19.9441C20.4684 20.1119 20.345 20.2566 20.1924 20.3652C20.0398 20.4738 19.8627 20.543 19.6769 20.5666Z" fill="white"/>
</svg>
