<svg width="20" height="20" viewBox="0 0 20 20" fill="none" xmlns="http://www.w3.org/2000/svg">
<g opacity="0.6" clip-path="url(#clip0_1_1522)">
<path d="M17.0386 13.374C16.8235 13.5589 16.6074 13.7356 16.3906 13.9048L13.8632 11.3775C14.0172 10.9467 14.1014 10.483 14.1014 10C14.1014 7.7384 12.2614 5.89844 9.99984 5.89844C9.51684 5.89844 9.05312 5.98262 8.62238 6.13664L6.72559 4.23985C7.83324 3.78547 8.93187 3.55469 9.99984 3.55469C11.2755 3.55469 12.5948 3.88266 13.9211 4.5295C14.9626 5.0375 16.0115 5.74289 17.0386 6.62602C18.7752 8.11922 19.8449 9.59571 19.8896 9.65785C20.0366 9.86223 20.0366 10.1377 19.8896 10.3422C19.8449 10.4043 18.7752 11.8808 17.0386 13.374Z" fill="black"/>
<path d="M9.99992 7.07033C11.6154 7.07033 12.9296 8.38459 12.9296 10C12.9296 10.1406 12.9191 10.2787 12.8998 10.414L9.58594 7.10013C9.72129 7.08088 9.85938 7.07033 9.99992 7.07033Z" fill="black"/>
<path d="M19.8282 19.8282C19.5994 20.057 19.2284 20.057 18.9996 19.8282L14.3961 15.2247C14.2377 15.311 14.0793 15.3931 13.921 15.4703C12.5948 16.1171 11.2754 16.4451 9.99979 16.4451C8.72412 16.4451 7.40479 16.1171 6.07854 15.4703C5.03705 14.9623 3.98814 14.2569 2.961 13.3738C1.22451 11.8806 0.154746 10.4041 0.110059 10.342C-0.0370117 10.1376 -0.0370117 9.86207 0.110059 9.65766C0.154746 9.59551 1.22447 8.11898 2.961 6.62582C3.49314 6.16828 4.03115 5.75894 4.57092 5.39961L0.171426 1.00004C-0.0574023 0.77125 -0.0574023 0.400234 0.171426 0.171406C0.28584 0.0570316 0.435762 -0.00019455 0.585723 -0.00019455C0.735684 -0.00019455 0.885645 0.0570316 1.00002 0.171446L19.8281 18.9996C20.057 19.2284 20.057 19.5994 19.8282 19.8282ZM5.89822 9.9998C5.89822 12.2614 7.73818 14.1014 9.99979 14.1014C10.9197 14.1014 11.7699 13.7969 12.4549 13.2835L11.6142 12.4429C11.151 12.75 10.5961 12.9295 9.99979 12.9295C8.38436 12.9295 7.0701 11.6152 7.0701 9.9998C7.0701 9.40355 7.24955 8.84863 7.55674 8.38535L6.71611 7.54473C6.20268 8.22969 5.89822 9.07984 5.89822 9.9998Z" fill="black"/>
</g>
<defs>
<clipPath id="clip0_1_1522">
<rect width="20" height="20" fill="white" transform="matrix(1 0 0 -1 0 20)"/>
</clipPath>
</defs>
</svg>
